<svg width="162" height="24" viewBox="0 0 162 24" fill="none" xmlns="http://www.w3.org/2000/svg">
<path d="M12.7936 15.9466C12.7936 17.3045 12.3437 18.4416 11.4439 19.3578C10.544 20.274 9.39062 20.8302 7.98361 21.0265V23.5543H6.36392V21.0756C5.15323 20.9775 4.05708 20.6012 3.07544 19.9467C2.09381 19.2923 1.34122 18.417 0.817682 17.3209L2.58462 15.9711C3.53354 17.9344 4.96509 18.916 6.87927 18.916C7.92635 18.916 8.76074 18.6461 9.38244 18.1062C10.0041 17.5499 10.315 16.871 10.315 16.0693C10.315 15.0386 9.67693 14.1633 8.40081 13.4434C8.08996 13.2635 7.48462 12.9771 6.58478 12.5845C5.68495 12.1591 4.98963 11.791 4.49881 11.4801C2.69915 10.3185 1.79932 8.887 1.79932 7.1855C1.79932 5.90937 2.23287 4.81322 3.09998 3.89702C3.96709 3.01355 5.12869 2.50637 6.58478 2.37549V0.117731H8.20448V2.42457C9.9387 2.68634 11.3375 3.56163 12.401 5.05044L10.7813 6.47381C9.816 5.14861 8.6135 4.486 7.17376 4.486C6.32301 4.486 5.61951 4.72323 5.06325 5.19769C4.50699 5.65579 4.22886 6.26931 4.22886 7.03825C4.22886 8.01989 4.74422 8.82974 5.77494 9.4678C6.08579 9.66413 6.79747 10.0322 7.90999 10.5721C9.12067 11.1448 9.8978 11.5456 10.2414 11.7746C11.9429 12.8054 12.7936 14.196 12.7936 15.9466ZM21.079 15.9466C21.079 14.9159 21.4062 13.967 22.0607 13.0998C22.7151 12.2327 23.5822 11.6029 24.662 11.2102V11.1611C23.7785 10.7357 23.0832 10.1631 22.576 9.44326C22.0852 8.72339 21.8398 7.94627 21.8398 7.11188C21.8398 5.73759 22.3633 4.60053 23.4104 3.7007C24.4575 2.80087 25.8318 2.35095 27.5333 2.35095C29.2021 2.35095 30.56 2.80087 31.6071 3.7007C32.6705 4.61689 33.2022 5.75395 33.2022 7.11188C33.2022 7.96263 32.9486 8.74793 32.4415 9.4678C31.9343 10.1877 31.239 10.7521 30.3555 11.1611V11.2347C31.4516 11.6274 32.3269 12.2573 32.9814 13.1244C33.6358 13.9915 33.963 14.9322 33.963 15.9466C33.963 17.4354 33.3576 18.6706 32.147 19.6523C30.9363 20.6175 29.3984 21.1002 27.5333 21.1002C25.6518 21.1002 24.1057 20.6175 22.8951 19.6523C21.6844 18.6706 21.079 17.4354 21.079 15.9466ZM27.5087 10.3022C28.5722 10.3022 29.4229 10.0241 30.061 9.4678C30.6991 8.89518 31.0181 8.16713 31.0181 7.28366C31.0181 6.40019 30.6909 5.68033 30.0365 5.12407C29.3984 4.55145 28.564 4.26514 27.5333 4.26514C26.5026 4.26514 25.6518 4.55145 24.981 5.12407C24.3266 5.68033 23.9994 6.40019 23.9994 7.28366C23.9994 8.16713 24.3184 8.89518 24.9565 9.4678C25.6109 10.0241 26.4617 10.3022 27.5087 10.3022ZM24.4657 18.1307C25.2673 18.7851 26.2899 19.1124 27.5333 19.1124C28.7767 19.1124 29.7829 18.7851 30.5518 18.1307C31.3371 17.4599 31.7298 16.6255 31.7298 15.6276C31.7298 14.6459 31.3453 13.8443 30.5764 13.2226C29.8074 12.5845 28.793 12.2655 27.5333 12.2655C26.2572 12.2655 25.2264 12.5845 24.4411 13.2226C23.6722 13.8443 23.2877 14.6459 23.2877 15.6276C23.2877 16.6255 23.6804 17.4599 24.4657 18.1307ZM42.0872 8.95244C43.8377 8.95244 45.2857 9.52506 46.4309 10.6703C47.5925 11.7992 48.1733 13.2389 48.1733 14.9895C48.1733 16.7564 47.568 18.2207 46.3573 19.3823C45.163 20.5275 43.6414 21.1002 41.7927 21.1002C39.6985 21.1002 37.7762 20.3639 36.0256 18.8915L37.1299 17.1245C38.6351 18.3843 40.1648 19.0142 41.7191 19.0142C42.9461 19.0142 43.9359 18.6379 44.6885 17.8853C45.4738 17.1164 45.8665 16.1593 45.8665 15.014C45.8665 13.9015 45.482 12.9608 44.713 12.1918C43.9604 11.4392 43.0034 11.063 41.8418 11.063C40.5002 11.063 39.3713 11.5538 38.4551 12.5354L36.909 11.7256L37.9643 2.66998H46.9463V4.68233H39.7312L39.0932 9.71321C39.993 9.20603 40.991 8.95244 42.0872 8.95244ZM56.0831 8.95244C57.8337 8.95244 59.2816 9.52506 60.4269 10.6703C61.5885 11.7992 62.1693 13.2389 62.1693 14.9895C62.1693 16.7564 61.5639 18.2207 60.3532 19.3823C59.1589 20.5275 57.6374 21.1002 55.7886 21.1002C53.6945 21.1002 51.7721 20.3639 50.0215 18.8915L51.1259 17.1245C52.631 18.3843 54.1608 19.0142 55.715 19.0142C56.9421 19.0142 57.9319 18.6379 58.6845 17.8853C59.4698 17.1164 59.8624 16.1593 59.8624 15.014C59.8624 13.9015 59.4779 12.9608 58.709 12.1918C57.9564 11.4392 56.9993 11.063 55.8377 11.063C54.4961 11.063 53.3673 11.5538 52.4511 12.5354L50.905 11.7256L51.9603 2.66998H60.9422V4.68233H53.7272L53.0891 9.71321C53.989 9.20603 54.987 8.95244 56.0831 8.95244ZM66.0544 18.278C66.5288 18.278 66.9133 18.4416 67.2078 18.7688C67.5187 19.096 67.6741 19.5132 67.6741 20.0204C67.6741 21.3619 66.6924 22.6626 64.7292 23.9224L64.0175 22.9162C65.0809 22.1309 65.719 21.5174 65.9317 21.0756H65.8335C65.4736 21.0756 65.1627 20.9447 64.901 20.683C64.6556 20.4212 64.5328 20.1022 64.5328 19.7259C64.5328 19.3332 64.6801 18.9978 64.9746 18.7197C65.2854 18.4252 65.6454 18.278 66.0544 18.278ZM75.4108 21.1002C73.4966 21.1002 71.9423 20.6012 70.748 19.6032L71.6069 17.8117C72.8013 18.6788 74.0528 19.1124 75.3617 19.1124C76.556 19.1124 77.554 18.7361 78.3557 17.9835C79.1737 17.2145 79.7463 16.282 80.0735 15.1858C80.4008 14.0897 80.5644 12.879 80.5644 11.5538H80.4907C80.0817 12.3718 79.4518 13.0344 78.6011 13.5416C77.7667 14.0488 76.8178 14.3023 75.7543 14.3023C74.1183 14.3023 72.7604 13.7461 71.6806 12.6336C70.6171 11.5211 70.0854 10.1222 70.0854 8.43708C70.0854 6.67014 70.658 5.21405 71.8033 4.06881C72.9485 2.92357 74.4291 2.35095 76.2452 2.35095C78.3557 2.35095 79.9508 3.1608 81.0306 4.78049C82.1268 6.36747 82.6749 8.5107 82.6749 11.2102C82.6749 12.5518 82.5358 13.8034 82.2577 14.965C81.9795 16.1102 81.5542 17.1491 80.9816 18.0816C80.4253 19.0142 79.6645 19.7504 78.6993 20.2903C77.7503 20.8302 76.6542 21.1002 75.4108 21.1002ZM76.147 12.3391C77.2595 12.3391 78.1839 11.9628 78.9201 11.2102C79.6727 10.4576 80.049 9.52506 80.049 8.41254C80.049 7.2673 79.6727 6.31021 78.9201 5.54126C78.1839 4.75595 77.2759 4.3633 76.1961 4.3633C75.0999 4.3633 74.1674 4.74777 73.3984 5.51672C72.6622 6.28567 72.2941 7.25912 72.2941 8.43708C72.2941 9.5496 72.6622 10.4822 73.3984 11.2347C74.1347 11.971 75.0508 12.3391 76.147 12.3391ZM84.1314 6.96463L89.1868 2.66998H91.0274V20.8057H88.7451V5.71305L85.4075 8.53525L84.1314 6.96463ZM104.791 14.1796H106.828V16.192H104.791V20.8057H102.583V16.192H94.067L93.6007 14.8422L103.564 2.66998H104.791V14.1796ZM102.583 6.98917L96.7174 14.1796H102.583V6.98917ZM109.155 19.6768C109.155 19.2678 109.302 18.9242 109.597 18.6461C109.891 18.3516 110.251 18.2043 110.677 18.2043C111.102 18.2043 111.454 18.3516 111.732 18.6461C112.026 18.9242 112.174 19.2678 112.174 19.6768C112.174 20.1185 112.026 20.4866 111.732 20.7811C111.454 21.0593 111.102 21.1983 110.677 21.1983C110.251 21.1983 109.891 21.0593 109.597 20.7811C109.302 20.4866 109.155 20.1185 109.155 19.6768ZM124.496 20.2658C123.547 20.822 122.443 21.1002 121.183 21.1002C119.923 21.1002 118.819 20.822 117.87 20.2658C116.217 19.2514 115.097 17.5008 114.508 15.014C113.984 12.8217 113.984 10.6294 114.508 8.43708C115.097 5.91755 116.217 4.17515 117.87 3.20988C118.835 2.63726 119.939 2.35095 121.183 2.35095C122.426 2.35095 123.53 2.63726 124.496 3.20988C126.148 4.17515 127.269 5.91755 127.858 8.43708C128.381 10.6294 128.381 12.8217 127.858 15.014C127.269 17.5008 126.148 19.2514 124.496 20.2658ZM121.183 18.9897C122.786 18.9897 123.972 18.3107 124.741 16.9528C125.526 15.5948 125.919 13.8524 125.919 11.7256C125.919 9.59868 125.526 7.86446 124.741 6.5229C123.989 5.14861 122.802 4.46146 121.183 4.46146C119.596 4.46146 118.41 5.14861 117.624 6.5229C116.855 7.88082 116.471 9.61504 116.471 11.7256C116.438 13.0835 116.577 14.2942 116.888 15.3576C117.215 16.421 117.747 17.2882 118.483 17.9589C119.219 18.6297 120.119 18.9733 121.183 18.9897ZM141.128 20.2658C140.179 20.822 139.075 21.1002 137.815 21.1002C136.555 21.1002 135.451 20.822 134.502 20.2658C132.849 19.2514 131.729 17.5008 131.14 15.014C130.616 12.8217 130.616 10.6294 131.14 8.43708C131.729 5.91755 132.849 4.17515 134.502 3.20988C135.467 2.63726 136.572 2.35095 137.815 2.35095C139.058 2.35095 140.163 2.63726 141.128 3.20988C142.78 4.17515 143.901 5.91755 144.49 8.43708C145.014 10.6294 145.014 12.8217 144.49 15.014C143.901 17.5008 142.78 19.2514 141.128 20.2658ZM137.815 18.9897C139.418 18.9897 140.604 18.3107 141.373 16.9528C142.159 15.5948 142.551 13.8524 142.551 11.7256C142.551 9.59868 142.159 7.86446 141.373 6.5229C140.621 5.14861 139.435 4.46146 137.815 4.46146C136.228 4.46146 135.042 5.14861 134.257 6.5229C133.488 7.88082 133.103 9.61504 133.103 11.7256C133.07 13.0835 133.209 14.2942 133.52 15.3576C133.847 16.421 134.379 17.2882 135.115 17.9589C135.852 18.6297 136.751 18.9733 137.815 18.9897ZM157.76 20.2658C156.811 20.822 155.707 21.1002 154.447 21.1002C153.187 21.1002 152.083 20.822 151.134 20.2658C149.482 19.2514 148.361 17.5008 147.772 15.014C147.248 12.8217 147.248 10.6294 147.772 8.43708C148.361 5.91755 149.482 4.17515 151.134 3.20988C152.099 2.63726 153.204 2.35095 154.447 2.35095C155.691 2.35095 156.795 2.63726 157.76 3.20988C159.413 4.17515 160.533 5.91755 161.122 8.43708C161.646 10.6294 161.646 12.8217 161.122 15.014C160.533 17.5008 159.413 19.2514 157.76 20.2658ZM154.447 18.9897C156.05 18.9897 157.237 18.3107 158.006 16.9528C158.791 15.5948 159.183 13.8524 159.183 11.7256C159.183 9.59868 158.791 7.86446 158.006 6.5229C157.253 5.14861 156.067 4.46146 154.447 4.46146C152.86 4.46146 151.674 5.14861 150.889 6.5229C150.12 7.88082 149.735 9.61504 149.735 11.7256C149.703 13.0835 149.842 14.2942 150.152 15.3576C150.48 16.421 151.011 17.2882 151.748 17.9589C152.484 18.6297 153.384 18.9733 154.447 18.9897Z" fill="#805AD5"/>
</svg>
