<svg width="104" height="18" viewBox="0 0 104 18" fill="none" xmlns="http://www.w3.org/2000/svg">
<g clip-path="url(#clip0_1_237)">
<path d="M101.235 4.52929C101.236 4.28944 101.177 4.05318 101.062 3.84275C100.946 3.63233 100.78 3.45466 100.577 3.32648C100.374 3.1983 100.142 3.12382 99.9027 3.11006C99.6633 3.09631 99.4242 3.14372 99.2082 3.24784C99.1939 3.0063 99.1194 2.77218 98.9914 2.56682C98.8635 2.36146 98.6862 2.19139 98.4756 2.07212C98.2651 1.95286 98.0281 1.88818 97.7862 1.884C97.5442 1.87982 97.3051 1.93626 97.0906 2.04818C97.0664 1.70084 96.9217 1.37283 96.6815 1.12076C96.4413 0.868681 96.1207 0.708345 95.7749 0.667413C95.4292 0.62648 95.0799 0.707519 94.7875 0.896547C94.4951 1.08557 94.2779 1.37074 94.1733 1.70283C93.9454 1.56615 93.6847 1.49391 93.4189 1.4938C93.2234 1.49439 93.0299 1.53357 92.8496 1.60908C92.6692 1.68459 92.5055 1.79495 92.3679 1.93384C92.2303 2.07272 92.1214 2.2374 92.0476 2.41844C91.9737 2.59947 91.9363 2.7933 91.9375 2.98882V8.74171C91.3559 8.01464 90.7879 7.29667 90.7015 7.17398C90.5701 6.9653 90.3876 6.7936 90.1713 6.67512C89.9551 6.55664 89.7121 6.4953 89.4655 6.4969C89.2563 6.49058 89.0481 6.52719 88.8536 6.60448C88.6592 6.68177 88.4826 6.7981 88.3348 6.94629C88.1871 7.09448 88.0713 7.27138 87.9945 7.46607C87.9178 7.66076 87.8818 7.86911 87.8887 8.07826C87.9296 8.89621 89.511 11.7863 90.5743 13.3586C92.1829 15.7397 93.7188 16.085 93.787 16.085H98.5674C98.6579 16.0841 98.7456 16.0538 98.8174 15.9987C99.6334 15.2467 100.223 14.2821 100.521 13.2131C100.976 11.809 101.217 9.7914 101.239 7.05129L101.235 4.52929ZM99.7444 12.9587C99.4892 13.8236 99.0312 14.615 98.4084 15.2671H93.9051C93.6916 15.2035 92.5101 14.7672 91.2377 12.8814C89.9654 10.9956 88.7294 8.48269 88.7066 8.03736C88.703 7.94224 88.7193 7.8474 88.7545 7.75896C88.7897 7.67052 88.8431 7.59044 88.9111 7.52388C88.9782 7.45488 89.0589 7.40065 89.1481 7.36466C89.2373 7.32866 89.333 7.31169 89.4292 7.31485C89.5492 7.30786 89.6688 7.33432 89.7747 7.39128C89.8806 7.44824 89.9687 7.53347 90.029 7.63748C90.1608 7.83288 91.1014 9.00072 91.6513 9.69598L92.7555 8.95074V2.98882C92.7478 2.89616 92.7595 2.80293 92.7897 2.715C92.8199 2.62707 92.8681 2.54637 92.931 2.47798C92.994 2.40959 93.0705 2.35501 93.1557 2.31767C93.2408 2.28033 93.3328 2.26105 93.4257 2.26105C93.5187 2.26105 93.6107 2.28033 93.6958 2.31767C93.781 2.35501 93.8575 2.40959 93.9204 2.47798C93.9834 2.54637 94.0315 2.62707 94.0618 2.715C94.092 2.80293 94.1036 2.89616 94.096 2.98882V8.051H94.9139V2.14361C94.9333 1.9764 95.0134 1.82212 95.1391 1.71014C95.2648 1.59816 95.4272 1.53628 95.5956 1.53628C95.7639 1.53628 95.9264 1.59816 96.052 1.71014C96.1777 1.82212 96.2578 1.9764 96.2772 2.14361V8.11007H97.0951V3.36144C97.0876 3.27185 97.0988 3.18167 97.1279 3.09661C97.157 3.01154 97.2035 2.93346 97.2644 2.86728C97.3252 2.8011 97.3992 2.74827 97.4815 2.71213C97.5638 2.676 97.6528 2.65734 97.7427 2.65734C97.8326 2.65734 97.9215 2.676 98.0038 2.71213C98.0862 2.74827 98.1601 2.8011 98.221 2.86728C98.2818 2.93346 98.3283 3.01154 98.3574 3.09661C98.3866 3.18167 98.3977 3.27185 98.3902 3.36144V8.55994H99.2082V4.51565C99.2213 4.365 99.2904 4.22473 99.4018 4.12253C99.5133 4.02033 99.659 3.96364 99.8103 3.96364C99.9615 3.96364 100.107 4.02033 100.219 4.12253C100.33 4.22473 100.399 4.365 100.412 4.51565V7.03765C100.399 9.72324 100.181 11.6363 99.7444 12.9587Z" fill="#F2F2F2"/>
</g>
<path d="M52.7057 7.07628H50.6091V4.97964H49.5608V7.07628H47.4641V8.12459H49.5608V10.2212H50.6091V8.12459H52.7057V7.07628Z" fill="#F2F2F2"/>
<path d="M54.5151 11.2678C55.3798 10.2409 55.8536 8.94126 55.8527 7.59872C55.8527 6.45836 55.5146 5.34362 54.881 4.39545C54.2475 3.44728 53.347 2.70827 52.2934 2.27187C51.2399 1.83548 50.0806 1.72129 48.9621 1.94377C47.8437 2.16624 46.8163 2.71537 46.01 3.52173C45.2036 4.32808 44.6545 5.35544 44.432 6.47388C44.2096 7.59232 44.3237 8.75162 44.7601 9.80517C45.1965 10.8587 45.9355 11.7592 46.8837 12.3928C47.8319 13.0263 48.9466 13.3645 50.087 13.3645C51.4295 13.3654 52.7291 12.8916 53.7561 12.0268L57.7323 15.9852L58.4735 15.2441L54.5151 11.2678ZM50.087 12.3161C49.154 12.3161 48.2419 12.0395 47.4661 11.5211C46.6903 11.0028 46.0857 10.266 45.7286 9.404C45.3716 8.542 45.2782 7.59349 45.4602 6.6784C45.6422 5.76331 46.0915 4.92274 46.7513 4.263C47.411 3.60325 48.2516 3.15396 49.1667 2.97194C50.0817 2.78992 51.0303 2.88334 51.8923 3.24039C52.7543 3.59744 53.491 4.20208 54.0094 4.97786C54.5277 5.75364 54.8044 6.6657 54.8044 7.59872C54.803 8.84943 54.3056 10.0485 53.4212 10.9329C52.5368 11.8173 51.3377 12.3148 50.087 12.3161Z" fill="#F2F2F2"/>
<g clip-path="url(#clip1_1_237)">
<path d="M73.802 1.77139C73.7113 1.70067 73.5996 1.66226 73.4845 1.66226C73.3695 1.66226 73.2578 1.70067 73.1671 1.77139L65.8209 7.49957L66.4563 8.3032L67.3546 7.60283V13.9312C67.3551 14.2022 67.463 14.4619 67.6546 14.6535C67.8462 14.8452 68.106 14.9531 68.377 14.9536H78.6013C78.8723 14.9531 79.1321 14.8452 79.3237 14.6535C79.5153 14.4619 79.6232 14.2022 79.6237 13.9312V7.60743L80.5219 8.3078L81.1574 7.50417L73.802 1.77139ZM74.5116 13.9312H72.4667V9.84145H74.5116V13.9312ZM75.534 13.9312V9.84145C75.5337 9.57037 75.4259 9.31046 75.2343 9.11878C75.0426 8.92709 74.7827 8.81929 74.5116 8.81902H72.4667C72.1956 8.81929 71.9357 8.92709 71.744 9.11878C71.5524 9.31046 71.4446 9.57037 71.4443 9.84145V13.9312H68.377V6.80585L73.4891 2.82347L78.6013 6.81096V13.9312H75.534Z" fill="#F2F2F2"/>
</g>
<path d="M32.7698 8.30751H30.3415V5.87924C30.3415 5.80895 30.284 5.75143 30.2137 5.75143H29.4469C29.3766 5.75143 29.319 5.80895 29.319 5.87924V8.30751H26.8908C26.8205 8.30751 26.763 8.36503 26.763 8.43532V9.20214C26.763 9.27243 26.8205 9.32995 26.8908 9.32995H29.319V11.7582C29.319 11.8285 29.3766 11.886 29.4469 11.886H30.2137C30.284 11.886 30.3415 11.8285 30.3415 11.7582V9.32995H32.7698C32.8401 9.32995 32.8976 9.27243 32.8976 9.20214V8.43532C32.8976 8.36503 32.8401 8.30751 32.7698 8.30751Z" fill="#F2F2F2"/>
<path d="M29.8271 1.66226C25.8747 1.66226 22.6701 4.86695 22.6701 8.81929C22.6701 12.7716 25.8747 15.9763 29.8271 15.9763C33.7794 15.9763 36.9841 12.7716 36.9841 8.81929C36.9841 4.86695 33.7794 1.66226 29.8271 1.66226ZM29.8271 14.7622C26.5457 14.7622 23.8842 12.1007 23.8842 8.81929C23.8842 5.53792 26.5457 2.8764 29.8271 2.8764C33.1084 2.8764 35.77 5.53792 35.77 8.81929C35.77 12.1007 33.1084 14.7622 29.8271 14.7622Z" fill="#F2F2F2"/>
<g clip-path="url(#clip2_1_237)">
<path d="M11.0221 8.81686H5.6658" stroke="#F2F2F2" stroke-width="1.33908" stroke-linecap="round"/>
<path d="M8.34713 15.5125C12.0449 15.5125 15.0425 12.5149 15.0425 8.81715C15.0425 5.11939 12.0449 2.12177 8.34713 2.12177C4.64937 2.12177 1.65174 5.11939 1.65174 8.81715C1.65174 12.5149 4.64937 15.5125 8.34713 15.5125Z" stroke="#F2F2F2" stroke-width="1.33908"/>
</g>
<defs>
<clipPath id="clip0_1_237">
<rect width="16.3589" height="16.3589" fill="white" transform="translate(86.935 0.637299)"/>
</clipPath>
<clipPath id="clip1_1_237">
<rect width="16.3589" height="16.3589" fill="white" transform="translate(65.311 0.640106)"/>
</clipPath>
<clipPath id="clip2_1_237">
<rect width="16.0689" height="16.0689" fill="white" transform="translate(0.304962 0.78653)"/>
</clipPath>
</defs>
</svg>
