<svg width="683" height="247" viewBox="0 0 683 247" fill="none" xmlns="http://www.w3.org/2000/svg">
<path d="M7.10916 86.3386C7.10916 87.0106 6.89316 87.5666 6.46116 88.0066C6.02916 88.4466 5.46916 88.7226 4.78116 88.8346V90.0826H3.89316V88.8706C3.30916 88.8226 2.77716 88.6426 2.29716 88.3306C1.82516 88.0106 1.46116 87.5826 1.20516 87.0466L2.10516 86.3146C2.56116 87.2586 3.25716 87.7306 4.19316 87.7306C4.68116 87.7306 5.06916 87.6026 5.35716 87.3466C5.65316 87.0906 5.80116 86.7786 5.80116 86.4106C5.80116 85.9226 5.49716 85.5066 4.88916 85.1626C4.82516 85.1226 4.53716 84.9866 4.02516 84.7546C3.56116 84.5306 3.21716 84.3466 2.99316 84.2026C2.11316 83.6506 1.67316 82.9506 1.67316 82.1026C1.67316 81.4706 1.88516 80.9346 2.30916 80.4946C2.73316 80.0546 3.29316 79.7986 3.98916 79.7266V78.6226H4.87716V79.7506C5.72516 79.9026 6.40516 80.3266 6.91716 81.0226L6.10116 81.7906C5.62116 81.1586 5.03316 80.8426 4.33716 80.8426C3.93716 80.8426 3.60516 80.9546 3.34116 81.1786C3.08516 81.3946 2.95716 81.6786 2.95716 82.0306C2.95716 82.4866 3.21316 82.8746 3.72516 83.1946C3.93316 83.3146 4.27316 83.4906 4.74516 83.7226C5.26516 83.9706 5.64116 84.1626 5.87316 84.2986C6.69716 84.8026 7.10916 85.4826 7.10916 86.3386ZM12.3823 84.9106L9.91032 87.6346H13.7263V88.7386H8.19432V87.7426L11.0383 84.6946C11.5503 84.1586 11.9143 83.7226 12.1303 83.3866C12.3463 83.0426 12.4543 82.6866 12.4543 82.3186C12.4543 81.8866 12.2983 81.5306 11.9863 81.2506C11.6823 80.9626 11.3023 80.8186 10.8463 80.8186C10.1103 80.8186 9.39432 81.1546 8.69832 81.8266L8.03832 80.9746C8.89432 80.1346 9.83832 79.7146 10.8703 79.7146C11.6783 79.7146 12.3383 79.9586 12.8503 80.4466C13.3623 80.9346 13.6183 81.5786 13.6183 82.3786C13.6183 83.1626 13.2063 84.0066 12.3823 84.9106ZM14.5734 80.9386V79.8706H20.1534V80.5786L16.6974 88.7386H15.4134L18.7974 80.9386H14.5734ZM23.7649 82.9546C24.6209 82.9546 25.3289 83.2346 25.8889 83.7946C26.4569 84.3466 26.7409 85.0466 26.7409 85.8946C26.7409 86.7586 26.4449 87.4746 25.8529 88.0426C25.2689 88.6026 24.5169 88.8826 23.5969 88.8826C22.5569 88.8826 21.6089 88.5266 20.7529 87.8146L21.3169 86.8786C22.0369 87.4786 22.7809 87.7786 23.5489 87.7786C24.1249 87.7786 24.6009 87.6026 24.9769 87.2506C25.3449 86.8906 25.5289 86.4426 25.5289 85.9066C25.5289 85.3786 25.3489 84.9386 24.9889 84.5866C24.6289 84.2266 24.1729 84.0466 23.6209 84.0466C22.9809 84.0466 22.4369 84.2826 21.9889 84.7546L21.1969 84.2986L21.7009 79.8706H26.1409V80.9386H22.6249L22.3249 83.3026C22.7729 83.0706 23.2529 82.9546 23.7649 82.9546ZM27.8361 88.1506C27.8361 87.9426 27.9081 87.7666 28.0521 87.6226C28.2041 87.4786 28.3881 87.4066 28.6041 87.4066C28.8201 87.4066 29.0001 87.4786 29.1441 87.6226C29.2961 87.7666 29.3721 87.9426 29.3721 88.1506C29.3721 88.3746 29.2961 88.5626 29.1441 88.7146C29.0001 88.8586 28.8201 88.9306 28.6041 88.9306C28.3881 88.9306 28.2041 88.8586 28.0521 88.7146C27.9081 88.5626 27.8361 88.3746 27.8361 88.1506ZM33.7882 88.8826C33.1802 88.8826 32.6442 88.7506 32.1802 88.4866C31.7162 88.2146 31.3482 87.8466 31.0762 87.3826C30.5722 86.4946 30.3202 85.4666 30.3202 84.2986C30.3202 83.1306 30.5722 82.1026 31.0762 81.2146C31.3482 80.7506 31.7162 80.3866 32.1802 80.1226C32.6442 79.8506 33.1802 79.7146 33.7882 79.7146C34.4042 79.7146 34.9442 79.8506 35.4082 80.1226C35.8722 80.3946 36.2322 80.7586 36.4882 81.2146C36.7442 81.6626 36.9322 82.1466 37.0522 82.6666C37.1802 83.1866 37.2442 83.7306 37.2442 84.2986C37.2442 84.8666 37.1802 85.4106 37.0522 85.9306C36.9322 86.4506 36.7442 86.9386 36.4882 87.3946C36.2322 87.8426 35.8722 88.2026 35.4082 88.4746C34.9442 88.7466 34.4042 88.8826 33.7882 88.8826ZM36.0322 84.2986C36.0322 83.2826 35.8482 82.4546 35.4802 81.8146C35.1122 81.1586 34.5482 80.8306 33.7882 80.8306C33.0282 80.8306 32.4642 81.1586 32.0962 81.8146C31.7282 82.4546 31.5442 83.2826 31.5442 84.2986C31.5442 85.3226 31.7282 86.1546 32.0962 86.7946C32.4722 87.4426 33.0362 87.7666 33.7882 87.7666C34.5402 87.7666 35.1042 87.4426 35.4802 86.7946C35.8482 86.1546 36.0322 85.3226 36.0322 84.2986ZM41.9327 88.8826C41.3247 88.8826 40.7887 88.7506 40.3247 88.4866C39.8607 88.2146 39.4927 87.8466 39.2207 87.3826C38.7167 86.4946 38.4647 85.4666 38.4647 84.2986C38.4647 83.1306 38.7167 82.1026 39.2207 81.2146C39.4927 80.7506 39.8607 80.3866 40.3247 80.1226C40.7887 79.8506 41.3247 79.7146 41.9327 79.7146C42.5487 79.7146 43.0887 79.8506 43.5527 80.1226C44.0167 80.3946 44.3767 80.7586 44.6327 81.2146C44.8887 81.6626 45.0767 82.1466 45.1967 82.6666C45.3247 83.1866 45.3887 83.7306 45.3887 84.2986C45.3887 84.8666 45.3247 85.4106 45.1967 85.9306C45.0767 86.4506 44.8887 86.9386 44.6327 87.3946C44.3767 87.8426 44.0167 88.2026 43.5527 88.4746C43.0887 88.7466 42.5487 88.8826 41.9327 88.8826ZM44.1767 84.2986C44.1767 83.2826 43.9927 82.4546 43.6247 81.8146C43.2567 81.1586 42.6927 80.8306 41.9327 80.8306C41.1727 80.8306 40.6087 81.1586 40.2407 81.8146C39.8727 82.4546 39.6887 83.2826 39.6887 84.2986C39.6887 85.3226 39.8727 86.1546 40.2407 86.7946C40.6167 87.4426 41.1807 87.7666 41.9327 87.7666C42.6847 87.7666 43.2487 87.4426 43.6247 86.7946C43.9927 86.1546 44.1767 85.3226 44.1767 84.2986ZM50.0772 88.8826C49.4692 88.8826 48.9332 88.7506 48.4692 88.4866C48.0052 88.2146 47.6372 87.8466 47.3652 87.3826C46.8612 86.4946 46.6092 85.4666 46.6092 84.2986C46.6092 83.1306 46.8612 82.1026 47.3652 81.2146C47.6372 80.7506 48.0052 80.3866 48.4692 80.1226C48.9332 79.8506 49.4692 79.7146 50.0772 79.7146C50.6932 79.7146 51.2332 79.8506 51.6972 80.1226C52.1612 80.3946 52.5212 80.7586 52.7772 81.2146C53.0332 81.6626 53.2212 82.1466 53.3412 82.6666C53.4692 83.1866 53.5332 83.7306 53.5332 84.2986C53.5332 84.8666 53.4692 85.4106 53.3412 85.9306C53.2212 86.4506 53.0332 86.9386 52.7772 87.3946C52.5212 87.8426 52.1612 88.2026 51.6972 88.4746C51.2332 88.7466 50.6932 88.8826 50.0772 88.8826ZM52.3212 84.2986C52.3212 83.2826 52.1372 82.4546 51.7692 81.8146C51.4012 81.1586 50.8372 80.8306 50.0772 80.8306C49.3172 80.8306 48.7532 81.1586 48.3852 81.8146C48.0172 82.4546 47.8332 83.2826 47.8332 84.2986C47.8332 85.3226 48.0172 86.1546 48.3852 86.7946C48.7612 87.4426 49.3252 87.7666 50.0772 87.7666C50.8292 87.7666 51.3932 87.4426 51.7692 86.7946C52.1372 86.1546 52.3212 85.3226 52.3212 84.2986Z" fill="white"/>
<path d="M7.11291 167.367C7.11291 168.039 6.89691 168.595 6.46491 169.035C6.03291 169.475 5.47291 169.751 4.78491 169.863V171.111H3.89691V169.899C3.31291 169.851 2.78091 169.671 2.30091 169.359C1.82891 169.039 1.46491 168.611 1.20891 168.075L2.10891 167.343C2.56491 168.287 3.26091 168.759 4.19691 168.759C4.68491 168.759 5.07291 168.631 5.36091 168.375C5.65691 168.119 5.80491 167.807 5.80491 167.439C5.80491 166.951 5.50091 166.535 4.89291 166.191C4.82891 166.151 4.54091 166.015 4.02891 165.783C3.56491 165.559 3.22091 165.375 2.99691 165.231C2.11691 164.679 1.67691 163.979 1.67691 163.131C1.67691 162.499 1.88891 161.963 2.31291 161.523C2.73691 161.083 3.29691 160.827 3.99291 160.755V159.651H4.88091V160.779C5.72891 160.931 6.40891 161.355 6.92091 162.051L6.10491 162.819C5.62491 162.187 5.03691 161.871 4.34091 161.871C3.94091 161.871 3.60891 161.983 3.34491 162.207C3.08891 162.423 2.96091 162.707 2.96091 163.059C2.96091 163.515 3.21691 163.903 3.72891 164.223C3.93691 164.343 4.27691 164.519 4.74891 164.751C5.26891 164.999 5.64491 165.191 5.87691 165.327C6.70091 165.831 7.11291 166.511 7.11291 167.367ZM12.3861 165.939L9.91407 168.663H13.7301V169.767H8.19807V168.771L11.0421 165.723C11.5541 165.187 11.9181 164.751 12.1341 164.415C12.3501 164.071 12.4581 163.715 12.4581 163.347C12.4581 162.915 12.3021 162.559 11.9901 162.279C11.6861 161.991 11.3061 161.847 10.8501 161.847C10.1141 161.847 9.39807 162.183 8.70207 162.855L8.04207 162.003C8.89807 161.163 9.84207 160.743 10.8741 160.743C11.6821 160.743 12.3421 160.987 12.8541 161.475C13.3661 161.963 13.6221 162.607 13.6221 163.407C13.6221 164.191 13.2101 165.035 12.3861 165.939ZM14.5772 161.967V160.899H20.1572V161.607L16.7012 169.767H15.4172L18.8012 161.967H14.5772ZM23.7686 163.983C24.6246 163.983 25.3326 164.263 25.8926 164.823C26.4606 165.375 26.7446 166.075 26.7446 166.923C26.7446 167.787 26.4486 168.503 25.8566 169.071C25.2726 169.631 24.5206 169.911 23.6006 169.911C22.5606 169.911 21.6126 169.555 20.7566 168.843L21.3206 167.907C22.0406 168.507 22.7846 168.807 23.5526 168.807C24.1286 168.807 24.6046 168.631 24.9806 168.279C25.3486 167.919 25.5326 167.471 25.5326 166.935C25.5326 166.407 25.3526 165.967 24.9926 165.615C24.6326 165.255 24.1766 165.075 23.6246 165.075C22.9846 165.075 22.4406 165.311 21.9926 165.783L21.2006 165.327L21.7046 160.899H26.1446V161.967H22.6286L22.3286 164.331C22.7766 164.099 23.2566 163.983 23.7686 163.983ZM27.8398 169.179C27.8398 168.971 27.9118 168.795 28.0558 168.651C28.2078 168.507 28.3918 168.435 28.6078 168.435C28.8238 168.435 29.0038 168.507 29.1478 168.651C29.2998 168.795 29.3758 168.971 29.3758 169.179C29.3758 169.403 29.2998 169.591 29.1478 169.743C29.0038 169.887 28.8238 169.959 28.6078 169.959C28.3918 169.959 28.2078 169.887 28.0558 169.743C27.9118 169.591 27.8398 169.403 27.8398 169.179ZM33.7919 169.911C33.1839 169.911 32.6479 169.779 32.1839 169.515C31.7199 169.243 31.3519 168.875 31.0799 168.411C30.5759 167.523 30.3239 166.495 30.3239 165.327C30.3239 164.159 30.5759 163.131 31.0799 162.243C31.3519 161.779 31.7199 161.415 32.1839 161.151C32.6479 160.879 33.1839 160.743 33.7919 160.743C34.4079 160.743 34.9479 160.879 35.4119 161.151C35.8759 161.423 36.2359 161.787 36.4919 162.243C36.7479 162.691 36.9359 163.175 37.0559 163.695C37.1839 164.215 37.2479 164.759 37.2479 165.327C37.2479 165.895 37.1839 166.439 37.0559 166.959C36.9359 167.479 36.7479 167.967 36.4919 168.423C36.2359 168.871 35.8759 169.231 35.4119 169.503C34.9479 169.775 34.4079 169.911 33.7919 169.911ZM36.0359 165.327C36.0359 164.311 35.8519 163.483 35.4839 162.843C35.1159 162.187 34.5519 161.859 33.7919 161.859C33.0319 161.859 32.4679 162.187 32.0999 162.843C31.7319 163.483 31.5479 164.311 31.5479 165.327C31.5479 166.351 31.7319 167.183 32.0999 167.823C32.4759 168.471 33.0399 168.795 33.7919 168.795C34.5439 168.795 35.1079 168.471 35.4839 167.823C35.8519 167.183 36.0359 166.351 36.0359 165.327ZM41.9364 169.911C41.3284 169.911 40.7924 169.779 40.3284 169.515C39.8644 169.243 39.4964 168.875 39.2244 168.411C38.7204 167.523 38.4684 166.495 38.4684 165.327C38.4684 164.159 38.7204 163.131 39.2244 162.243C39.4964 161.779 39.8644 161.415 40.3284 161.151C40.7924 160.879 41.3284 160.743 41.9364 160.743C42.5524 160.743 43.0924 160.879 43.5564 161.151C44.0204 161.423 44.3804 161.787 44.6364 162.243C44.8924 162.691 45.0804 163.175 45.2004 163.695C45.3284 164.215 45.3924 164.759 45.3924 165.327C45.3924 165.895 45.3284 166.439 45.2004 166.959C45.0804 167.479 44.8924 167.967 44.6364 168.423C44.3804 168.871 44.0204 169.231 43.5564 169.503C43.0924 169.775 42.5524 169.911 41.9364 169.911ZM44.1804 165.327C44.1804 164.311 43.9964 163.483 43.6284 162.843C43.2604 162.187 42.6964 161.859 41.9364 161.859C41.1764 161.859 40.6124 162.187 40.2444 162.843C39.8764 163.483 39.6924 164.311 39.6924 165.327C39.6924 166.351 39.8764 167.183 40.2444 167.823C40.6204 168.471 41.1844 168.795 41.9364 168.795C42.6884 168.795 43.2524 168.471 43.6284 167.823C43.9964 167.183 44.1804 166.351 44.1804 165.327ZM50.081 169.911C49.473 169.911 48.937 169.779 48.473 169.515C48.009 169.243 47.641 168.875 47.369 168.411C46.865 167.523 46.613 166.495 46.613 165.327C46.613 164.159 46.865 163.131 47.369 162.243C47.641 161.779 48.009 161.415 48.473 161.151C48.937 160.879 49.473 160.743 50.081 160.743C50.697 160.743 51.237 160.879 51.701 161.151C52.165 161.423 52.525 161.787 52.781 162.243C53.037 162.691 53.225 163.175 53.345 163.695C53.473 164.215 53.537 164.759 53.537 165.327C53.537 165.895 53.473 166.439 53.345 166.959C53.225 167.479 53.037 167.967 52.781 168.423C52.525 168.871 52.165 169.231 51.701 169.503C51.237 169.775 50.697 169.911 50.081 169.911ZM52.325 165.327C52.325 164.311 52.141 163.483 51.773 162.843C51.405 162.187 50.841 161.859 50.081 161.859C49.321 161.859 48.757 162.187 48.389 162.843C48.021 163.483 47.837 164.311 47.837 165.327C47.837 166.351 48.021 167.183 48.389 167.823C48.765 168.471 49.329 168.795 50.081 168.795C50.833 168.795 51.397 168.471 51.773 167.823C52.141 167.183 52.325 166.351 52.325 165.327Z" fill="white"/>
<path d="M7.11291 208.33C7.11291 209.002 6.89691 209.558 6.46491 209.998C6.03291 210.438 5.47291 210.714 4.78491 210.826V212.074H3.89691V210.862C3.31291 210.814 2.78091 210.634 2.30091 210.322C1.82891 210.002 1.46491 209.574 1.20891 209.038L2.10891 208.306C2.56491 209.25 3.26091 209.722 4.19691 209.722C4.68491 209.722 5.07291 209.594 5.36091 209.338C5.65691 209.082 5.80491 208.77 5.80491 208.402C5.80491 207.914 5.50091 207.498 4.89291 207.154C4.82891 207.114 4.54091 206.978 4.02891 206.746C3.56491 206.522 3.22091 206.338 2.99691 206.194C2.11691 205.642 1.67691 204.942 1.67691 204.094C1.67691 203.462 1.88891 202.926 2.31291 202.486C2.73691 202.046 3.29691 201.79 3.99291 201.718V200.614H4.88091V201.742C5.72891 201.894 6.40891 202.318 6.92091 203.014L6.10491 203.782C5.62491 203.15 5.03691 202.834 4.34091 202.834C3.94091 202.834 3.60891 202.946 3.34491 203.17C3.08891 203.386 2.96091 203.67 2.96091 204.022C2.96091 204.478 3.21691 204.866 3.72891 205.186C3.93691 205.306 4.27691 205.482 4.74891 205.714C5.26891 205.962 5.64491 206.154 5.87691 206.29C6.70091 206.794 7.11291 207.474 7.11291 208.33ZM12.3861 206.902L9.91407 209.626H13.7301V210.73H8.19807V209.734L11.0421 206.686C11.5541 206.15 11.9181 205.714 12.1341 205.378C12.3501 205.034 12.4581 204.678 12.4581 204.31C12.4581 203.878 12.3021 203.522 11.9901 203.242C11.6861 202.954 11.3061 202.81 10.8501 202.81C10.1141 202.81 9.39807 203.146 8.70207 203.818L8.04207 202.966C8.89807 202.126 9.84207 201.706 10.8741 201.706C11.6821 201.706 12.3421 201.95 12.8541 202.438C13.3661 202.926 13.6221 203.57 13.6221 204.37C13.6221 205.154 13.2101 205.998 12.3861 206.902ZM14.5772 202.93V201.862H20.1572V202.57L16.7012 210.73H15.4172L18.8012 202.93H14.5772ZM23.7686 204.946C24.6246 204.946 25.3326 205.226 25.8926 205.786C26.4606 206.338 26.7446 207.038 26.7446 207.886C26.7446 208.75 26.4486 209.466 25.8566 210.034C25.2726 210.594 24.5206 210.874 23.6006 210.874C22.5606 210.874 21.6126 210.518 20.7566 209.806L21.3206 208.87C22.0406 209.47 22.7846 209.77 23.5526 209.77C24.1286 209.77 24.6046 209.594 24.9806 209.242C25.3486 208.882 25.5326 208.434 25.5326 207.898C25.5326 207.37 25.3526 206.93 24.9926 206.578C24.6326 206.218 24.1766 206.038 23.6246 206.038C22.9846 206.038 22.4406 206.274 21.9926 206.746L21.2006 206.29L21.7046 201.862H26.1446V202.93H22.6286L22.3286 205.294C22.7766 205.062 23.2566 204.946 23.7686 204.946ZM27.8398 210.142C27.8398 209.934 27.9118 209.758 28.0558 209.614C28.2078 209.47 28.3918 209.398 28.6078 209.398C28.8238 209.398 29.0038 209.47 29.1478 209.614C29.2998 209.758 29.3758 209.934 29.3758 210.142C29.3758 210.366 29.2998 210.554 29.1478 210.706C29.0038 210.85 28.8238 210.922 28.6078 210.922C28.3918 210.922 28.2078 210.85 28.0558 210.706C27.9118 210.554 27.8398 210.366 27.8398 210.142ZM33.7919 210.874C33.1839 210.874 32.6479 210.742 32.1839 210.478C31.7199 210.206 31.3519 209.838 31.0799 209.374C30.5759 208.486 30.3239 207.458 30.3239 206.29C30.3239 205.122 30.5759 204.094 31.0799 203.206C31.3519 202.742 31.7199 202.378 32.1839 202.114C32.6479 201.842 33.1839 201.706 33.7919 201.706C34.4079 201.706 34.9479 201.842 35.4119 202.114C35.8759 202.386 36.2359 202.75 36.4919 203.206C36.7479 203.654 36.9359 204.138 37.0559 204.658C37.1839 205.178 37.2479 205.722 37.2479 206.29C37.2479 206.858 37.1839 207.402 37.0559 207.922C36.9359 208.442 36.7479 208.93 36.4919 209.386C36.2359 209.834 35.8759 210.194 35.4119 210.466C34.9479 210.738 34.4079 210.874 33.7919 210.874ZM36.0359 206.29C36.0359 205.274 35.8519 204.446 35.4839 203.806C35.1159 203.15 34.5519 202.822 33.7919 202.822C33.0319 202.822 32.4679 203.15 32.0999 203.806C31.7319 204.446 31.5479 205.274 31.5479 206.29C31.5479 207.314 31.7319 208.146 32.0999 208.786C32.4759 209.434 33.0399 209.758 33.7919 209.758C34.5439 209.758 35.1079 209.434 35.4839 208.786C35.8519 208.146 36.0359 207.314 36.0359 206.29ZM41.9364 210.874C41.3284 210.874 40.7924 210.742 40.3284 210.478C39.8644 210.206 39.4964 209.838 39.2244 209.374C38.7204 208.486 38.4684 207.458 38.4684 206.29C38.4684 205.122 38.7204 204.094 39.2244 203.206C39.4964 202.742 39.8644 202.378 40.3284 202.114C40.7924 201.842 41.3284 201.706 41.9364 201.706C42.5524 201.706 43.0924 201.842 43.5564 202.114C44.0204 202.386 44.3804 202.75 44.6364 203.206C44.8924 203.654 45.0804 204.138 45.2004 204.658C45.3284 205.178 45.3924 205.722 45.3924 206.29C45.3924 206.858 45.3284 207.402 45.2004 207.922C45.0804 208.442 44.8924 208.93 44.6364 209.386C44.3804 209.834 44.0204 210.194 43.5564 210.466C43.0924 210.738 42.5524 210.874 41.9364 210.874ZM44.1804 206.29C44.1804 205.274 43.9964 204.446 43.6284 203.806C43.2604 203.15 42.6964 202.822 41.9364 202.822C41.1764 202.822 40.6124 203.15 40.2444 203.806C39.8764 204.446 39.6924 205.274 39.6924 206.29C39.6924 207.314 39.8764 208.146 40.2444 208.786C40.6204 209.434 41.1844 209.758 41.9364 209.758C42.6884 209.758 43.2524 209.434 43.6284 208.786C43.9964 208.146 44.1804 207.314 44.1804 206.29ZM50.081 210.874C49.473 210.874 48.937 210.742 48.473 210.478C48.009 210.206 47.641 209.838 47.369 209.374C46.865 208.486 46.613 207.458 46.613 206.29C46.613 205.122 46.865 204.094 47.369 203.206C47.641 202.742 48.009 202.378 48.473 202.114C48.937 201.842 49.473 201.706 50.081 201.706C50.697 201.706 51.237 201.842 51.701 202.114C52.165 202.386 52.525 202.75 52.781 203.206C53.037 203.654 53.225 204.138 53.345 204.658C53.473 205.178 53.537 205.722 53.537 206.29C53.537 206.858 53.473 207.402 53.345 207.922C53.225 208.442 53.037 208.93 52.781 209.386C52.525 209.834 52.165 210.194 51.701 210.466C51.237 210.738 50.697 210.874 50.081 210.874ZM52.325 206.29C52.325 205.274 52.141 204.446 51.773 203.806C51.405 203.15 50.841 202.822 50.081 202.822C49.321 202.822 48.757 203.15 48.389 203.806C48.021 204.446 47.837 205.274 47.837 206.29C47.837 207.314 48.021 208.146 48.389 208.786C48.765 209.434 49.329 209.758 50.081 209.758C50.833 209.758 51.397 209.434 51.773 208.786C52.141 208.146 52.325 207.314 52.325 206.29Z" fill="white"/>
<path d="M7.11291 127.298C7.11291 127.97 6.89691 128.526 6.46491 128.966C6.03291 129.406 5.47291 129.682 4.78491 129.794V131.042H3.89691V129.83C3.31291 129.782 2.78091 129.602 2.30091 129.29C1.82891 128.97 1.46491 128.542 1.20891 128.006L2.10891 127.274C2.56491 128.218 3.26091 128.69 4.19691 128.69C4.68491 128.69 5.07291 128.562 5.36091 128.306C5.65691 128.05 5.80491 127.738 5.80491 127.37C5.80491 126.882 5.50091 126.466 4.89291 126.122C4.82891 126.082 4.54091 125.946 4.02891 125.714C3.56491 125.49 3.22091 125.306 2.99691 125.162C2.11691 124.61 1.67691 123.91 1.67691 123.062C1.67691 122.43 1.88891 121.894 2.31291 121.454C2.73691 121.014 3.29691 120.758 3.99291 120.686V119.582H4.88091V120.71C5.72891 120.862 6.40891 121.286 6.92091 121.982L6.10491 122.75C5.62491 122.118 5.03691 121.802 4.34091 121.802C3.94091 121.802 3.60891 121.914 3.34491 122.138C3.08891 122.354 2.96091 122.638 2.96091 122.99C2.96091 123.446 3.21691 123.834 3.72891 124.154C3.93691 124.274 4.27691 124.45 4.74891 124.682C5.26891 124.93 5.64491 125.122 5.87691 125.258C6.70091 125.762 7.11291 126.442 7.11291 127.298ZM12.3861 125.87L9.91407 128.594H13.7301V129.698H8.19807V128.702L11.0421 125.654C11.5541 125.118 11.9181 124.682 12.1341 124.346C12.3501 124.002 12.4581 123.646 12.4581 123.278C12.4581 122.846 12.3021 122.49 11.9901 122.21C11.6861 121.922 11.3061 121.778 10.8501 121.778C10.1141 121.778 9.39807 122.114 8.70207 122.786L8.04207 121.934C8.89807 121.094 9.84207 120.674 10.8741 120.674C11.6821 120.674 12.3421 120.918 12.8541 121.406C13.3661 121.894 13.6221 122.538 13.6221 123.338C13.6221 124.122 13.2101 124.966 12.3861 125.87ZM14.5772 121.898V120.83H20.1572V121.538L16.7012 129.698H15.4172L18.8012 121.898H14.5772ZM23.7686 123.914C24.6246 123.914 25.3326 124.194 25.8926 124.754C26.4606 125.306 26.7446 126.006 26.7446 126.854C26.7446 127.718 26.4486 128.434 25.8566 129.002C25.2726 129.562 24.5206 129.842 23.6006 129.842C22.5606 129.842 21.6126 129.486 20.7566 128.774L21.3206 127.838C22.0406 128.438 22.7846 128.738 23.5526 128.738C24.1286 128.738 24.6046 128.562 24.9806 128.21C25.3486 127.85 25.5326 127.402 25.5326 126.866C25.5326 126.338 25.3526 125.898 24.9926 125.546C24.6326 125.186 24.1766 125.006 23.6246 125.006C22.9846 125.006 22.4406 125.242 21.9926 125.714L21.2006 125.258L21.7046 120.83H26.1446V121.898H22.6286L22.3286 124.262C22.7766 124.03 23.2566 123.914 23.7686 123.914ZM27.8398 129.11C27.8398 128.902 27.9118 128.726 28.0558 128.582C28.2078 128.438 28.3918 128.366 28.6078 128.366C28.8238 128.366 29.0038 128.438 29.1478 128.582C29.2998 128.726 29.3758 128.902 29.3758 129.11C29.3758 129.334 29.2998 129.522 29.1478 129.674C29.0038 129.818 28.8238 129.89 28.6078 129.89C28.3918 129.89 28.2078 129.818 28.0558 129.674C27.9118 129.522 27.8398 129.334 27.8398 129.11ZM33.7919 129.842C33.1839 129.842 32.6479 129.71 32.1839 129.446C31.7199 129.174 31.3519 128.806 31.0799 128.342C30.5759 127.454 30.3239 126.426 30.3239 125.258C30.3239 124.09 30.5759 123.062 31.0799 122.174C31.3519 121.71 31.7199 121.346 32.1839 121.082C32.6479 120.81 33.1839 120.674 33.7919 120.674C34.4079 120.674 34.9479 120.81 35.4119 121.082C35.8759 121.354 36.2359 121.718 36.4919 122.174C36.7479 122.622 36.9359 123.106 37.0559 123.626C37.1839 124.146 37.2479 124.69 37.2479 125.258C37.2479 125.826 37.1839 126.37 37.0559 126.89C36.9359 127.41 36.7479 127.898 36.4919 128.354C36.2359 128.802 35.8759 129.162 35.4119 129.434C34.9479 129.706 34.4079 129.842 33.7919 129.842ZM36.0359 125.258C36.0359 124.242 35.8519 123.414 35.4839 122.774C35.1159 122.118 34.5519 121.79 33.7919 121.79C33.0319 121.79 32.4679 122.118 32.0999 122.774C31.7319 123.414 31.5479 124.242 31.5479 125.258C31.5479 126.282 31.7319 127.114 32.0999 127.754C32.4759 128.402 33.0399 128.726 33.7919 128.726C34.5439 128.726 35.1079 128.402 35.4839 127.754C35.8519 127.114 36.0359 126.282 36.0359 125.258ZM41.9364 129.842C41.3284 129.842 40.7924 129.71 40.3284 129.446C39.8644 129.174 39.4964 128.806 39.2244 128.342C38.7204 127.454 38.4684 126.426 38.4684 125.258C38.4684 124.09 38.7204 123.062 39.2244 122.174C39.4964 121.71 39.8644 121.346 40.3284 121.082C40.7924 120.81 41.3284 120.674 41.9364 120.674C42.5524 120.674 43.0924 120.81 43.5564 121.082C44.0204 121.354 44.3804 121.718 44.6364 122.174C44.8924 122.622 45.0804 123.106 45.2004 123.626C45.3284 124.146 45.3924 124.69 45.3924 125.258C45.3924 125.826 45.3284 126.37 45.2004 126.89C45.0804 127.41 44.8924 127.898 44.6364 128.354C44.3804 128.802 44.0204 129.162 43.5564 129.434C43.0924 129.706 42.5524 129.842 41.9364 129.842ZM44.1804 125.258C44.1804 124.242 43.9964 123.414 43.6284 122.774C43.2604 122.118 42.6964 121.79 41.9364 121.79C41.1764 121.79 40.6124 122.118 40.2444 122.774C39.8764 123.414 39.6924 124.242 39.6924 125.258C39.6924 126.282 39.8764 127.114 40.2444 127.754C40.6204 128.402 41.1844 128.726 41.9364 128.726C42.6884 128.726 43.2524 128.402 43.6284 127.754C43.9964 127.114 44.1804 126.282 44.1804 125.258ZM50.081 129.842C49.473 129.842 48.937 129.71 48.473 129.446C48.009 129.174 47.641 128.806 47.369 128.342C46.865 127.454 46.613 126.426 46.613 125.258C46.613 124.09 46.865 123.062 47.369 122.174C47.641 121.71 48.009 121.346 48.473 121.082C48.937 120.81 49.473 120.674 50.081 120.674C50.697 120.674 51.237 120.81 51.701 121.082C52.165 121.354 52.525 121.718 52.781 122.174C53.037 122.622 53.225 123.106 53.345 123.626C53.473 124.146 53.537 124.69 53.537 125.258C53.537 125.826 53.473 126.37 53.345 126.89C53.225 127.41 53.037 127.898 52.781 128.354C52.525 128.802 52.165 129.162 51.701 129.434C51.237 129.706 50.697 129.842 50.081 129.842ZM52.325 125.258C52.325 124.242 52.141 123.414 51.773 122.774C51.405 122.118 50.841 121.79 50.081 121.79C49.321 121.79 48.757 122.118 48.389 122.774C48.021 123.414 47.837 124.242 47.837 125.258C47.837 126.282 48.021 127.114 48.389 127.754C48.765 128.402 49.329 128.726 50.081 128.726C50.833 128.726 51.397 128.402 51.773 127.754C52.141 127.114 52.325 126.282 52.325 125.258Z" fill="white"/>
<path d="M7.10916 45.3756C7.10916 46.0476 6.89316 46.6036 6.46116 47.0436C6.02916 47.4836 5.46916 47.7596 4.78116 47.8716V49.1196H3.89316V47.9076C3.30916 47.8596 2.77716 47.6796 2.29716 47.3676C1.82516 47.0476 1.46116 46.6196 1.20516 46.0836L2.10516 45.3516C2.56116 46.2956 3.25716 46.7676 4.19316 46.7676C4.68116 46.7676 5.06916 46.6396 5.35716 46.3836C5.65316 46.1276 5.80116 45.8156 5.80116 45.4476C5.80116 44.9596 5.49716 44.5436 4.88916 44.1996C4.82516 44.1596 4.53716 44.0236 4.02516 43.7916C3.56116 43.5676 3.21716 43.3836 2.99316 43.2396C2.11316 42.6876 1.67316 41.9876 1.67316 41.1396C1.67316 40.5076 1.88516 39.9716 2.30916 39.5316C2.73316 39.0916 3.29316 38.8356 3.98916 38.7636V37.6596H4.87716V38.7876C5.72516 38.9396 6.40516 39.3636 6.91716 40.0596L6.10116 40.8276C5.62116 40.1956 5.03316 39.8796 4.33716 39.8796C3.93716 39.8796 3.60516 39.9916 3.34116 40.2156C3.08516 40.4316 2.95716 40.7156 2.95716 41.0676C2.95716 41.5236 3.21316 41.9116 3.72516 42.2316C3.93316 42.3516 4.27316 42.5276 4.74516 42.7596C5.26516 43.0076 5.64116 43.1996 5.87316 43.3356C6.69716 43.8396 7.10916 44.5196 7.10916 45.3756ZM12.3823 43.9476L9.91032 46.6716H13.7263V47.7756H8.19432V46.7796L11.0383 43.7316C11.5503 43.1956 11.9143 42.7596 12.1303 42.4236C12.3463 42.0796 12.4543 41.7236 12.4543 41.3556C12.4543 40.9236 12.2983 40.5676 11.9863 40.2876C11.6823 39.9996 11.3023 39.8556 10.8463 39.8556C10.1103 39.8556 9.39432 40.1916 8.69832 40.8636L8.03832 40.0116C8.89432 39.1716 9.83832 38.7516 10.8703 38.7516C11.6783 38.7516 12.3383 38.9956 12.8503 39.4836C13.3623 39.9716 13.6183 40.6156 13.6183 41.4156C13.6183 42.1996 13.2063 43.0436 12.3823 43.9476ZM14.5734 39.9756V38.9076H20.1534V39.6156L16.6974 47.7756H15.4134L18.7974 39.9756H14.5734ZM23.7649 41.9916C24.6209 41.9916 25.3289 42.2716 25.8889 42.8316C26.4569 43.3836 26.7409 44.0836 26.7409 44.9316C26.7409 45.7956 26.4449 46.5116 25.8529 47.0796C25.2689 47.6396 24.5169 47.9196 23.5969 47.9196C22.5569 47.9196 21.6089 47.5636 20.7529 46.8516L21.3169 45.9156C22.0369 46.5156 22.7809 46.8156 23.5489 46.8156C24.1249 46.8156 24.6009 46.6396 24.9769 46.2876C25.3449 45.9276 25.5289 45.4796 25.5289 44.9436C25.5289 44.4156 25.3489 43.9756 24.9889 43.6236C24.6289 43.2636 24.1729 43.0836 23.6209 43.0836C22.9809 43.0836 22.4369 43.3196 21.9889 43.7916L21.1969 43.3356L21.7009 38.9076H26.1409V39.9756H22.6249L22.3249 42.3396C22.7729 42.1076 23.2529 41.9916 23.7649 41.9916ZM27.8361 47.1876C27.8361 46.9796 27.9081 46.8036 28.0521 46.6596C28.2041 46.5156 28.3881 46.4436 28.6041 46.4436C28.8201 46.4436 29.0001 46.5156 29.1441 46.6596C29.2961 46.8036 29.3721 46.9796 29.3721 47.1876C29.3721 47.4116 29.2961 47.5996 29.1441 47.7516C29.0001 47.8956 28.8201 47.9676 28.6041 47.9676C28.3881 47.9676 28.2041 47.8956 28.0521 47.7516C27.9081 47.5996 27.8361 47.4116 27.8361 47.1876ZM33.7882 47.9196C33.1802 47.9196 32.6442 47.7876 32.1802 47.5236C31.7162 47.2516 31.3482 46.8836 31.0762 46.4196C30.5722 45.5316 30.3202 44.5036 30.3202 43.3356C30.3202 42.1676 30.5722 41.1396 31.0762 40.2516C31.3482 39.7876 31.7162 39.4236 32.1802 39.1596C32.6442 38.8876 33.1802 38.7516 33.7882 38.7516C34.4042 38.7516 34.9442 38.8876 35.4082 39.1596C35.8722 39.4316 36.2322 39.7956 36.4882 40.2516C36.7442 40.6996 36.9322 41.1836 37.0522 41.7036C37.1802 42.2236 37.2442 42.7676 37.2442 43.3356C37.2442 43.9036 37.1802 44.4476 37.0522 44.9676C36.9322 45.4876 36.7442 45.9756 36.4882 46.4316C36.2322 46.8796 35.8722 47.2396 35.4082 47.5116C34.9442 47.7836 34.4042 47.9196 33.7882 47.9196ZM36.0322 43.3356C36.0322 42.3196 35.8482 41.4916 35.4802 40.8516C35.1122 40.1956 34.5482 39.8676 33.7882 39.8676C33.0282 39.8676 32.4642 40.1956 32.0962 40.8516C31.7282 41.4916 31.5442 42.3196 31.5442 43.3356C31.5442 44.3596 31.7282 45.1916 32.0962 45.8316C32.4722 46.4796 33.0362 46.8036 33.7882 46.8036C34.5402 46.8036 35.1042 46.4796 35.4802 45.8316C35.8482 45.1916 36.0322 44.3596 36.0322 43.3356ZM41.9327 47.9196C41.3247 47.9196 40.7887 47.7876 40.3247 47.5236C39.8607 47.2516 39.4927 46.8836 39.2207 46.4196C38.7167 45.5316 38.4647 44.5036 38.4647 43.3356C38.4647 42.1676 38.7167 41.1396 39.2207 40.2516C39.4927 39.7876 39.8607 39.4236 40.3247 39.1596C40.7887 38.8876 41.3247 38.7516 41.9327 38.7516C42.5487 38.7516 43.0887 38.8876 43.5527 39.1596C44.0167 39.4316 44.3767 39.7956 44.6327 40.2516C44.8887 40.6996 45.0767 41.1836 45.1967 41.7036C45.3247 42.2236 45.3887 42.7676 45.3887 43.3356C45.3887 43.9036 45.3247 44.4476 45.1967 44.9676C45.0767 45.4876 44.8887 45.9756 44.6327 46.4316C44.3767 46.8796 44.0167 47.2396 43.5527 47.5116C43.0887 47.7836 42.5487 47.9196 41.9327 47.9196ZM44.1767 43.3356C44.1767 42.3196 43.9927 41.4916 43.6247 40.8516C43.2567 40.1956 42.6927 39.8676 41.9327 39.8676C41.1727 39.8676 40.6087 40.1956 40.2407 40.8516C39.8727 41.4916 39.6887 42.3196 39.6887 43.3356C39.6887 44.3596 39.8727 45.1916 40.2407 45.8316C40.6167 46.4796 41.1807 46.8036 41.9327 46.8036C42.6847 46.8036 43.2487 46.4796 43.6247 45.8316C43.9927 45.1916 44.1767 44.3596 44.1767 43.3356ZM50.0772 47.9196C49.4692 47.9196 48.9332 47.7876 48.4692 47.5236C48.0052 47.2516 47.6372 46.8836 47.3652 46.4196C46.8612 45.5316 46.6092 44.5036 46.6092 43.3356C46.6092 42.1676 46.8612 41.1396 47.3652 40.2516C47.6372 39.7876 48.0052 39.4236 48.4692 39.1596C48.9332 38.8876 49.4692 38.7516 50.0772 38.7516C50.6932 38.7516 51.2332 38.8876 51.6972 39.1596C52.1612 39.4316 52.5212 39.7956 52.7772 40.2516C53.0332 40.6996 53.2212 41.1836 53.3412 41.7036C53.4692 42.2236 53.5332 42.7676 53.5332 43.3356C53.5332 43.9036 53.4692 44.4476 53.3412 44.9676C53.2212 45.4876 53.0332 45.9756 52.7772 46.4316C52.5212 46.8796 52.1612 47.2396 51.6972 47.5116C51.2332 47.7836 50.6932 47.9196 50.0772 47.9196ZM52.3212 43.3356C52.3212 42.3196 52.1372 41.4916 51.7692 40.8516C51.4012 40.1956 50.8372 39.8676 50.0772 39.8676C49.3172 39.8676 48.7532 40.1956 48.3852 40.8516C48.0172 41.4916 47.8332 42.3196 47.8332 43.3356C47.8332 44.3596 48.0172 45.1916 48.3852 45.8316C48.7612 46.4796 49.3252 46.8036 50.0772 46.8036C50.8292 46.8036 51.3932 46.4796 51.7692 45.8316C52.1372 45.1916 52.3212 44.3596 52.3212 43.3356Z" fill="white"/>
<path d="M67.621 208.97C67.621 134.2 67.621 106.095 67.621 31.325" stroke="#686868" stroke-width="0.533316"/>
<path d="M67.1629 208.741C133.163 208.741 570.236 208.741 636.236 208.741" stroke="#686868" stroke-width="0.533316"/>
<path d="M73.3716 242.131H72.1836V233.263H72.7596L76.5876 238.891L80.3916 233.263H80.9796V242.131H79.7796V236.143L76.7316 240.619H76.4196L73.3716 236.143V242.131ZM88.0124 236.635V235.699H89.1164V242.131H88.0124V241.219C87.4364 241.931 86.6804 242.287 85.7444 242.287C84.8164 242.287 84.0484 241.959 83.4404 241.303C82.8324 240.647 82.5284 239.835 82.5284 238.867C82.5284 237.899 82.8324 237.107 83.4404 236.491C84.0484 235.859 84.8164 235.543 85.7444 235.543C86.6564 235.543 87.4124 235.907 88.0124 236.635ZM88.0844 238.903C88.0844 238.255 87.8804 237.711 87.4724 237.271C87.0644 236.823 86.5324 236.599 85.8764 236.599C85.2204 236.599 84.6924 236.823 84.2924 237.271C83.8924 237.719 83.6924 238.267 83.6924 238.915C83.6924 239.563 83.8924 240.111 84.2924 240.559C84.6924 241.007 85.2204 241.231 85.8764 241.231C86.5324 241.231 87.0644 241.007 87.4724 240.559C87.8804 240.119 88.0844 239.567 88.0844 238.903ZM93.4969 240.523L95.2249 235.699H96.4969L93.7969 242.851C93.5329 243.563 93.2209 244.075 92.8609 244.387C92.5089 244.707 92.0769 244.867 91.5649 244.867C91.1569 244.867 90.8129 244.783 90.5329 244.615L90.6769 243.607C90.9649 243.735 91.2249 243.799 91.4569 243.799C91.9849 243.799 92.4089 243.423 92.7289 242.671L92.9689 242.107L90.1729 235.699H91.5049L93.4969 240.523ZM104.39 238.303L101.918 241.027H105.734V242.131H100.202V241.135L103.046 238.087C103.558 237.551 103.922 237.115 104.138 236.779C104.354 236.435 104.462 236.079 104.462 235.711C104.462 235.279 104.306 234.923 103.994 234.643C103.69 234.355 103.31 234.211 102.854 234.211C102.118 234.211 101.402 234.547 100.706 235.219L100.046 234.367C100.902 233.527 101.846 233.107 102.878 233.107C103.686 233.107 104.346 233.351 104.858 233.839C105.37 234.327 105.626 234.971 105.626 235.771C105.626 236.555 105.214 237.399 104.39 238.303ZM110.409 242.275C109.801 242.275 109.265 242.143 108.801 241.879C108.337 241.607 107.969 241.239 107.697 240.775C107.193 239.887 106.941 238.859 106.941 237.691C106.941 236.523 107.193 235.495 107.697 234.607C107.969 234.143 108.337 233.779 108.801 233.515C109.265 233.243 109.801 233.107 110.409 233.107C111.025 233.107 111.565 233.243 112.029 233.515C112.493 233.787 112.853 234.151 113.109 234.607C113.365 235.055 113.553 235.539 113.673 236.059C113.801 236.579 113.865 237.123 113.865 237.691C113.865 238.259 113.801 238.803 113.673 239.323C113.553 239.843 113.365 240.331 113.109 240.787C112.853 241.235 112.493 241.595 112.029 241.867C111.565 242.139 111.025 242.275 110.409 242.275ZM112.653 237.691C112.653 236.675 112.469 235.847 112.101 235.207C111.733 234.551 111.169 234.223 110.409 234.223C109.649 234.223 109.085 234.551 108.717 235.207C108.349 235.847 108.165 236.675 108.165 237.691C108.165 238.715 108.349 239.547 108.717 240.187C109.093 240.835 109.657 241.159 110.409 241.159C111.161 241.159 111.725 240.835 112.101 240.187C112.469 239.547 112.653 238.715 112.653 237.691ZM119.121 238.303L116.649 241.027H120.465V242.131H114.933V241.135L117.777 238.087C118.289 237.551 118.653 237.115 118.869 236.779C119.085 236.435 119.193 236.079 119.193 235.711C119.193 235.279 119.037 234.923 118.725 234.643C118.421 234.355 118.041 234.211 117.585 234.211C116.849 234.211 116.133 234.547 115.437 235.219L114.777 234.367C115.633 233.527 116.577 233.107 117.609 233.107C118.417 233.107 119.077 233.351 119.589 233.839C120.101 234.327 120.357 234.971 120.357 235.771C120.357 236.555 119.945 237.399 119.121 238.303ZM121.108 235.375L123.616 233.263H124.564V242.131H123.376V234.859L121.768 236.203L121.108 235.375Z" fill="white"/>
<path d="M148.699 242.275C147.667 242.275 146.819 241.895 146.155 241.135L146.887 240.259C147.367 240.843 147.971 241.135 148.699 241.135C149.235 241.135 149.663 240.967 149.983 240.631C150.303 240.287 150.463 239.807 150.463 239.191V233.263H151.663V239.251C151.663 240.211 151.387 240.955 150.835 241.483C150.299 242.011 149.587 242.275 148.699 242.275ZM156.184 242.287C155.344 242.287 154.672 242.039 154.168 241.543C153.672 241.047 153.424 240.379 153.424 239.539V235.699H154.576V239.503C154.576 240.031 154.716 240.451 154.996 240.763C155.284 241.067 155.68 241.219 156.184 241.219C156.688 241.219 157.084 241.067 157.372 240.763C157.66 240.451 157.804 240.031 157.804 239.503V235.699H158.944V239.539C158.944 240.395 158.696 241.067 158.2 241.555C157.712 242.043 157.04 242.287 156.184 242.287ZM161.797 242.131H160.645V235.699H161.773V236.611C162.181 235.891 162.861 235.531 163.813 235.531C164.533 235.531 165.137 235.763 165.625 236.227C166.113 236.691 166.357 237.359 166.357 238.231V242.131H165.217V238.555C165.217 237.939 165.065 237.459 164.761 237.115C164.465 236.771 164.069 236.599 163.573 236.599C163.053 236.599 162.625 236.783 162.289 237.151C161.961 237.527 161.797 237.999 161.797 238.567V242.131ZM174.904 238.303L172.432 241.027H176.248V242.131H170.716V241.135L173.56 238.087C174.072 237.551 174.436 237.115 174.652 236.779C174.868 236.435 174.976 236.079 174.976 235.711C174.976 235.279 174.82 234.923 174.508 234.643C174.204 234.355 173.824 234.211 173.368 234.211C172.632 234.211 171.916 234.547 171.22 235.219L170.56 234.367C171.416 233.527 172.36 233.107 173.392 233.107C174.2 233.107 174.86 233.351 175.372 233.839C175.884 234.327 176.14 234.971 176.14 235.771C176.14 236.555 175.728 237.399 174.904 238.303ZM180.923 242.275C180.315 242.275 179.779 242.143 179.315 241.879C178.851 241.607 178.483 241.239 178.211 240.775C177.707 239.887 177.455 238.859 177.455 237.691C177.455 236.523 177.707 235.495 178.211 234.607C178.483 234.143 178.851 233.779 179.315 233.515C179.779 233.243 180.315 233.107 180.923 233.107C181.539 233.107 182.079 233.243 182.543 233.515C183.007 233.787 183.367 234.151 183.623 234.607C183.879 235.055 184.067 235.539 184.187 236.059C184.315 236.579 184.379 237.123 184.379 237.691C184.379 238.259 184.315 238.803 184.187 239.323C184.067 239.843 183.879 240.331 183.623 240.787C183.367 241.235 183.007 241.595 182.543 241.867C182.079 242.139 181.539 242.275 180.923 242.275ZM183.167 237.691C183.167 236.675 182.983 235.847 182.615 235.207C182.247 234.551 181.683 234.223 180.923 234.223C180.163 234.223 179.599 234.551 179.231 235.207C178.863 235.847 178.679 236.675 178.679 237.691C178.679 238.715 178.863 239.547 179.231 240.187C179.607 240.835 180.171 241.159 180.923 241.159C181.675 241.159 182.239 240.835 182.615 240.187C182.983 239.547 183.167 238.715 183.167 237.691ZM189.634 238.303L187.162 241.027H190.978V242.131H185.446V241.135L188.29 238.087C188.802 237.551 189.166 237.115 189.382 236.779C189.598 236.435 189.706 236.079 189.706 235.711C189.706 235.279 189.55 234.923 189.238 234.643C188.934 234.355 188.554 234.211 188.098 234.211C187.362 234.211 186.646 234.547 185.95 235.219L185.29 234.367C186.146 233.527 187.09 233.107 188.122 233.107C188.93 233.107 189.59 233.351 190.102 233.839C190.614 234.327 190.87 234.971 190.87 235.771C190.87 236.555 190.458 237.399 189.634 238.303ZM191.621 235.375L194.129 233.263H195.077V242.131H193.889V234.859L192.281 236.203L191.621 235.375Z" fill="white"/>
<path d="M223.66 242.275C222.628 242.275 221.78 241.895 221.116 241.135L221.848 240.259C222.328 240.843 222.932 241.135 223.66 241.135C224.196 241.135 224.624 240.967 224.944 240.631C225.264 240.287 225.424 239.807 225.424 239.191V233.263H226.624V239.251C226.624 240.211 226.348 240.955 225.796 241.483C225.26 242.011 224.548 242.275 223.66 242.275ZM231.145 242.287C230.305 242.287 229.633 242.039 229.129 241.543C228.633 241.047 228.385 240.379 228.385 239.539V235.699H229.537V239.503C229.537 240.031 229.677 240.451 229.957 240.763C230.245 241.067 230.641 241.219 231.145 241.219C231.649 241.219 232.045 241.067 232.333 240.763C232.621 240.451 232.765 240.031 232.765 239.503V235.699H233.905V239.539C233.905 240.395 233.657 241.067 233.161 241.555C232.673 242.043 232.001 242.287 231.145 242.287ZM236.758 233.047V242.131H235.606V233.047H236.758ZM245.388 238.303L242.916 241.027H246.732V242.131H241.2V241.135L244.044 238.087C244.556 237.551 244.92 237.115 245.136 236.779C245.352 236.435 245.46 236.079 245.46 235.711C245.46 235.279 245.304 234.923 244.992 234.643C244.688 234.355 244.308 234.211 243.852 234.211C243.116 234.211 242.4 234.547 241.704 235.219L241.044 234.367C241.9 233.527 242.844 233.107 243.876 233.107C244.684 233.107 245.344 233.351 245.856 233.839C246.368 234.327 246.624 234.971 246.624 235.771C246.624 236.555 246.212 237.399 245.388 238.303ZM251.407 242.275C250.799 242.275 250.263 242.143 249.799 241.879C249.335 241.607 248.967 241.239 248.695 240.775C248.191 239.887 247.939 238.859 247.939 237.691C247.939 236.523 248.191 235.495 248.695 234.607C248.967 234.143 249.335 233.779 249.799 233.515C250.263 233.243 250.799 233.107 251.407 233.107C252.023 233.107 252.563 233.243 253.027 233.515C253.491 233.787 253.851 234.151 254.107 234.607C254.363 235.055 254.551 235.539 254.671 236.059C254.799 236.579 254.863 237.123 254.863 237.691C254.863 238.259 254.799 238.803 254.671 239.323C254.551 239.843 254.363 240.331 254.107 240.787C253.851 241.235 253.491 241.595 253.027 241.867C252.563 242.139 252.023 242.275 251.407 242.275ZM253.651 237.691C253.651 236.675 253.467 235.847 253.099 235.207C252.731 234.551 252.167 234.223 251.407 234.223C250.647 234.223 250.083 234.551 249.715 235.207C249.347 235.847 249.163 236.675 249.163 237.691C249.163 238.715 249.347 239.547 249.715 240.187C250.091 240.835 250.655 241.159 251.407 241.159C252.159 241.159 252.723 240.835 253.099 240.187C253.467 239.547 253.651 238.715 253.651 237.691ZM260.118 238.303L257.646 241.027H261.462V242.131H255.93V241.135L258.774 238.087C259.286 237.551 259.65 237.115 259.866 236.779C260.082 236.435 260.19 236.079 260.19 235.711C260.19 235.279 260.034 234.923 259.722 234.643C259.418 234.355 259.038 234.211 258.582 234.211C257.846 234.211 257.13 234.547 256.434 235.219L255.774 234.367C256.63 233.527 257.574 233.107 258.606 233.107C259.414 233.107 260.074 233.351 260.586 233.839C261.098 234.327 261.354 234.971 261.354 235.771C261.354 236.555 260.942 237.399 260.118 238.303ZM262.106 235.375L264.614 233.263H265.562V242.131H264.374V234.859L262.766 236.203L262.106 235.375Z" fill="white"/>
<path d="M298.398 242.131H297.09L296.19 239.827H292.818L291.918 242.131H290.61L294.198 233.263H294.846L298.398 242.131ZM295.782 238.699L294.51 235.351L293.226 238.699H295.782ZM302.022 242.287C301.182 242.287 300.51 242.039 300.006 241.543C299.51 241.047 299.262 240.379 299.262 239.539V235.699H300.414V239.503C300.414 240.031 300.554 240.451 300.834 240.763C301.122 241.067 301.518 241.219 302.022 241.219C302.526 241.219 302.922 241.067 303.21 240.763C303.498 240.451 303.642 240.031 303.642 239.503V235.699H304.782V239.539C304.782 240.395 304.534 241.067 304.038 241.555C303.55 242.043 302.878 242.287 302.022 242.287ZM311.571 236.539V235.699H312.711V241.471C312.711 242.503 312.399 243.327 311.775 243.943C311.143 244.559 310.307 244.867 309.267 244.867C308.219 244.867 307.271 244.563 306.423 243.955L306.963 243.043C307.667 243.563 308.431 243.823 309.255 243.823C309.967 243.823 310.531 243.619 310.947 243.211C311.363 242.819 311.571 242.303 311.571 241.663V241.135C310.995 241.807 310.243 242.143 309.315 242.143C308.387 242.143 307.619 241.827 307.011 241.195C306.395 240.555 306.087 239.767 306.087 238.831C306.087 237.895 306.403 237.115 307.035 236.491C307.667 235.859 308.447 235.543 309.375 235.543C310.263 235.543 310.995 235.875 311.571 236.539ZM307.875 240.463C308.299 240.895 308.823 241.111 309.447 241.111C310.079 241.111 310.603 240.895 311.019 240.463C311.435 240.039 311.643 239.499 311.643 238.843C311.643 238.187 311.435 237.651 311.019 237.235C310.595 236.803 310.071 236.587 309.447 236.587C308.815 236.587 308.291 236.803 307.875 237.235C307.459 237.651 307.251 238.187 307.251 238.843C307.251 239.499 307.459 240.039 307.875 240.463ZM321.327 238.303L318.855 241.027H322.671V242.131H317.139V241.135L319.983 238.087C320.495 237.551 320.859 237.115 321.075 236.779C321.291 236.435 321.399 236.079 321.399 235.711C321.399 235.279 321.243 234.923 320.931 234.643C320.627 234.355 320.247 234.211 319.791 234.211C319.055 234.211 318.339 234.547 317.643 235.219L316.983 234.367C317.839 233.527 318.783 233.107 319.815 233.107C320.623 233.107 321.283 233.351 321.795 233.839C322.307 234.327 322.563 234.971 322.563 235.771C322.563 236.555 322.151 237.399 321.327 238.303ZM327.346 242.275C326.738 242.275 326.202 242.143 325.738 241.879C325.274 241.607 324.906 241.239 324.634 240.775C324.13 239.887 323.878 238.859 323.878 237.691C323.878 236.523 324.13 235.495 324.634 234.607C324.906 234.143 325.274 233.779 325.738 233.515C326.202 233.243 326.738 233.107 327.346 233.107C327.962 233.107 328.502 233.243 328.966 233.515C329.43 233.787 329.79 234.151 330.046 234.607C330.302 235.055 330.49 235.539 330.61 236.059C330.738 236.579 330.802 237.123 330.802 237.691C330.802 238.259 330.738 238.803 330.61 239.323C330.49 239.843 330.302 240.331 330.046 240.787C329.79 241.235 329.43 241.595 328.966 241.867C328.502 242.139 327.962 242.275 327.346 242.275ZM329.59 237.691C329.59 236.675 329.406 235.847 329.038 235.207C328.67 234.551 328.106 234.223 327.346 234.223C326.586 234.223 326.022 234.551 325.654 235.207C325.286 235.847 325.102 236.675 325.102 237.691C325.102 238.715 325.286 239.547 325.654 240.187C326.03 240.835 326.594 241.159 327.346 241.159C328.098 241.159 328.662 240.835 329.038 240.187C329.406 239.547 329.59 238.715 329.59 237.691ZM336.058 238.303L333.586 241.027H337.402V242.131H331.87V241.135L334.714 238.087C335.226 237.551 335.59 237.115 335.806 236.779C336.022 236.435 336.13 236.079 336.13 235.711C336.13 235.279 335.974 234.923 335.662 234.643C335.358 234.355 334.978 234.211 334.522 234.211C333.786 234.211 333.07 234.547 332.374 235.219L331.714 234.367C332.57 233.527 333.514 233.107 334.546 233.107C335.354 233.107 336.014 233.351 336.526 233.839C337.038 234.327 337.294 234.971 337.294 235.771C337.294 236.555 336.882 237.399 336.058 238.303ZM338.045 235.375L340.553 233.263H341.501V242.131H340.313V234.859L338.705 236.203L338.045 235.375Z" fill="white"/>
<path d="M367.032 242.275C366.376 242.275 365.776 242.119 365.232 241.807C364.696 241.487 364.288 241.035 364.008 240.451L364.896 239.719C365.376 240.663 366.084 241.135 367.02 241.135C367.516 241.135 367.912 241.007 368.208 240.751C368.504 240.495 368.652 240.175 368.652 239.791C368.652 239.319 368.344 238.907 367.728 238.555C367.616 238.499 367.312 238.355 366.816 238.123C366.408 237.939 366.076 237.771 365.82 237.619C364.932 237.059 364.488 236.355 364.488 235.507C364.488 234.827 364.732 234.259 365.22 233.803C365.708 233.339 366.356 233.107 367.164 233.107C368.268 233.107 369.136 233.543 369.768 234.415L368.964 235.183C368.484 234.551 367.888 234.235 367.176 234.235C366.768 234.235 366.432 234.347 366.168 234.571C365.904 234.787 365.772 235.075 365.772 235.435C365.772 235.899 366.024 236.279 366.528 236.575C366.736 236.703 367.08 236.879 367.56 237.103C368.064 237.343 368.436 237.531 368.676 237.667C369.532 238.187 369.96 238.875 369.96 239.731C369.96 240.491 369.68 241.103 369.12 241.567C368.56 242.039 367.864 242.275 367.032 242.275ZM377.322 238.795C377.322 238.875 377.31 239.071 377.286 239.383H372.162C372.266 239.951 372.506 240.399 372.882 240.727C373.258 241.055 373.77 241.219 374.418 241.219C374.802 241.219 375.198 241.155 375.606 241.027C376.014 240.891 376.366 240.715 376.662 240.499L377.154 241.375C376.818 241.631 376.402 241.847 375.906 242.023C375.41 242.191 374.906 242.275 374.394 242.275C373.81 242.275 373.29 242.179 372.834 241.987C372.386 241.795 372.03 241.535 371.766 241.207C371.502 240.879 371.302 240.519 371.166 240.127C371.03 239.735 370.962 239.323 370.962 238.891C370.962 237.931 371.262 237.131 371.862 236.491C372.47 235.859 373.254 235.543 374.214 235.543C375.126 235.543 375.87 235.835 376.446 236.419C377.03 237.003 377.322 237.795 377.322 238.795ZM372.162 238.387H376.134C376.102 237.835 375.906 237.395 375.546 237.067C375.194 236.731 374.75 236.563 374.214 236.563C373.694 236.563 373.246 236.735 372.87 237.079C372.494 237.415 372.258 237.851 372.162 238.387ZM382.126 235.543C383.046 235.543 383.81 235.871 384.418 236.527C385.034 237.191 385.342 237.987 385.342 238.915C385.342 239.851 385.034 240.651 384.418 241.315C383.81 241.963 383.042 242.287 382.114 242.287C381.178 242.287 380.418 241.923 379.834 241.195V244.783H378.682V235.699H379.834V236.671C380.434 235.919 381.198 235.543 382.126 235.543ZM384.19 238.903C384.19 238.255 383.986 237.711 383.578 237.271C383.17 236.823 382.638 236.599 381.982 236.599C381.326 236.599 380.794 236.823 380.386 237.271C379.986 237.719 379.786 238.263 379.786 238.903C379.786 239.559 379.986 240.111 380.386 240.559C380.794 241.007 381.326 241.231 381.982 241.231C382.638 241.231 383.17 241.007 383.578 240.559C383.986 240.119 384.19 239.567 384.19 238.903ZM393.561 238.303L391.089 241.027H394.905V242.131H389.373V241.135L392.217 238.087C392.729 237.551 393.093 237.115 393.309 236.779C393.525 236.435 393.633 236.079 393.633 235.711C393.633 235.279 393.477 234.923 393.165 234.643C392.861 234.355 392.481 234.211 392.025 234.211C391.289 234.211 390.573 234.547 389.877 235.219L389.217 234.367C390.073 233.527 391.017 233.107 392.049 233.107C392.857 233.107 393.517 233.351 394.029 233.839C394.541 234.327 394.797 234.971 394.797 235.771C394.797 236.555 394.385 237.399 393.561 238.303ZM399.581 242.275C398.973 242.275 398.437 242.143 397.973 241.879C397.509 241.607 397.141 241.239 396.869 240.775C396.365 239.887 396.113 238.859 396.113 237.691C396.113 236.523 396.365 235.495 396.869 234.607C397.141 234.143 397.509 233.779 397.973 233.515C398.437 233.243 398.973 233.107 399.581 233.107C400.197 233.107 400.737 233.243 401.201 233.515C401.665 233.787 402.025 234.151 402.281 234.607C402.537 235.055 402.725 235.539 402.845 236.059C402.973 236.579 403.037 237.123 403.037 237.691C403.037 238.259 402.973 238.803 402.845 239.323C402.725 239.843 402.537 240.331 402.281 240.787C402.025 241.235 401.665 241.595 401.201 241.867C400.737 242.139 400.197 242.275 399.581 242.275ZM401.825 237.691C401.825 236.675 401.641 235.847 401.273 235.207C400.905 234.551 400.341 234.223 399.581 234.223C398.821 234.223 398.257 234.551 397.889 235.207C397.521 235.847 397.337 236.675 397.337 237.691C397.337 238.715 397.521 239.547 397.889 240.187C398.265 240.835 398.829 241.159 399.581 241.159C400.333 241.159 400.897 240.835 401.273 240.187C401.641 239.547 401.825 238.715 401.825 237.691ZM408.292 238.303L405.82 241.027H409.636V242.131H404.104V241.135L406.948 238.087C407.46 237.551 407.824 237.115 408.04 236.779C408.256 236.435 408.364 236.079 408.364 235.711C408.364 235.279 408.208 234.923 407.896 234.643C407.592 234.355 407.212 234.211 406.756 234.211C406.02 234.211 405.304 234.547 404.608 235.219L403.948 234.367C404.804 233.527 405.748 233.107 406.78 233.107C407.588 233.107 408.248 233.351 408.76 233.839C409.272 234.327 409.528 234.971 409.528 235.771C409.528 236.555 409.116 237.399 408.292 238.303ZM410.279 235.375L412.787 233.263H413.735V242.131H412.547V234.859L410.939 236.203L410.279 235.375Z" fill="white"/>
<path d="M436.736 237.751C436.736 236.455 437.184 235.359 438.08 234.463C438.984 233.559 440.064 233.107 441.32 233.107C442.576 233.107 443.656 233.559 444.56 234.463C445.464 235.367 445.916 236.447 445.916 237.703C445.916 238.959 445.464 240.039 444.56 240.943C443.656 241.831 442.564 242.275 441.284 242.275C439.996 242.275 438.916 241.839 438.044 240.967C437.172 240.095 436.736 239.023 436.736 237.751ZM444.668 237.715C444.668 236.739 444.344 235.923 443.696 235.267C443.048 234.611 442.256 234.283 441.32 234.283C440.392 234.283 439.604 234.615 438.956 235.279C438.308 235.943 437.984 236.755 437.984 237.715C437.984 238.667 438.304 239.475 438.944 240.139C439.576 240.787 440.368 241.111 441.32 241.111C442.272 241.111 443.064 240.787 443.696 240.139C444.344 239.491 444.668 238.683 444.668 237.715ZM450.349 242.275C449.349 242.275 448.533 241.959 447.901 241.327C447.269 240.695 446.953 239.891 446.953 238.915C446.953 237.939 447.273 237.131 447.913 236.491C448.553 235.859 449.385 235.543 450.409 235.543C451.041 235.543 451.621 235.695 452.149 235.999C452.685 236.303 453.077 236.711 453.325 237.223L452.377 237.775C452.161 237.407 451.877 237.119 451.525 236.911C451.181 236.703 450.809 236.599 450.409 236.599C449.753 236.599 449.205 236.819 448.765 237.259C448.333 237.707 448.117 238.259 448.117 238.915C448.117 239.563 448.329 240.111 448.753 240.559C449.169 240.999 449.701 241.219 450.349 241.219C450.749 241.219 451.133 241.111 451.501 240.895C451.877 240.679 452.157 240.403 452.341 240.067L453.301 240.619C453.029 241.123 452.629 241.523 452.101 241.819C451.557 242.123 450.973 242.275 450.349 242.275ZM458.301 240.859L458.733 241.747C458.269 242.107 457.697 242.287 457.017 242.287C456.345 242.287 455.833 242.079 455.481 241.663C455.137 241.247 454.965 240.651 454.965 239.875V236.683H453.825V235.699H454.977V233.419H456.105V235.699H458.385V236.683H456.105V239.959C456.105 240.807 456.453 241.231 457.149 241.231C457.525 241.231 457.909 241.107 458.301 240.859ZM466.495 238.303L464.023 241.027H467.839V242.131H462.307V241.135L465.151 238.087C465.663 237.551 466.027 237.115 466.243 236.779C466.459 236.435 466.567 236.079 466.567 235.711C466.567 235.279 466.411 234.923 466.099 234.643C465.795 234.355 465.415 234.211 464.959 234.211C464.223 234.211 463.507 234.547 462.811 235.219L462.151 234.367C463.007 233.527 463.951 233.107 464.983 233.107C465.791 233.107 466.451 233.351 466.963 233.839C467.475 234.327 467.731 234.971 467.731 235.771C467.731 236.555 467.319 237.399 466.495 238.303ZM472.514 242.275C471.906 242.275 471.37 242.143 470.906 241.879C470.442 241.607 470.074 241.239 469.802 240.775C469.298 239.887 469.046 238.859 469.046 237.691C469.046 236.523 469.298 235.495 469.802 234.607C470.074 234.143 470.442 233.779 470.906 233.515C471.37 233.243 471.906 233.107 472.514 233.107C473.13 233.107 473.67 233.243 474.134 233.515C474.598 233.787 474.958 234.151 475.214 234.607C475.47 235.055 475.658 235.539 475.778 236.059C475.906 236.579 475.97 237.123 475.97 237.691C475.97 238.259 475.906 238.803 475.778 239.323C475.658 239.843 475.47 240.331 475.214 240.787C474.958 241.235 474.598 241.595 474.134 241.867C473.67 242.139 473.13 242.275 472.514 242.275ZM474.758 237.691C474.758 236.675 474.574 235.847 474.206 235.207C473.838 234.551 473.274 234.223 472.514 234.223C471.754 234.223 471.19 234.551 470.822 235.207C470.454 235.847 470.27 236.675 470.27 237.691C470.27 238.715 470.454 239.547 470.822 240.187C471.198 240.835 471.762 241.159 472.514 241.159C473.266 241.159 473.83 240.835 474.206 240.187C474.574 239.547 474.758 238.715 474.758 237.691ZM481.225 238.303L478.753 241.027H482.569V242.131H477.037V241.135L479.881 238.087C480.393 237.551 480.757 237.115 480.973 236.779C481.189 236.435 481.297 236.079 481.297 235.711C481.297 235.279 481.141 234.923 480.829 234.643C480.525 234.355 480.145 234.211 479.689 234.211C478.953 234.211 478.237 234.547 477.541 235.219L476.881 234.367C477.737 233.527 478.681 233.107 479.713 233.107C480.521 233.107 481.181 233.351 481.693 233.839C482.205 234.327 482.461 234.971 482.461 235.771C482.461 236.555 482.049 237.399 481.225 238.303ZM483.212 235.375L485.72 233.263H486.668V242.131H485.48V234.859L483.872 236.203L483.212 235.375Z" fill="white"/>
<path d="M515.611 239.587V233.263H516.799V242.131H516.175L510.859 235.843V242.131H509.671V233.263H510.211L515.611 239.587ZM521.736 242.287C520.752 242.287 519.94 241.963 519.3 241.315C518.668 240.659 518.352 239.855 518.352 238.903C518.352 237.951 518.668 237.155 519.3 236.515C519.932 235.859 520.744 235.531 521.736 235.531C522.712 235.531 523.516 235.859 524.148 236.515C524.788 237.179 525.108 237.975 525.108 238.903C525.108 239.847 524.788 240.651 524.148 241.315C523.508 241.963 522.704 242.287 521.736 242.287ZM523.956 238.903C523.956 238.271 523.74 237.731 523.308 237.283C522.876 236.827 522.352 236.599 521.736 236.599C521.12 236.599 520.596 236.827 520.164 237.283C519.732 237.731 519.516 238.271 519.516 238.903C519.516 239.543 519.732 240.091 520.164 240.547C520.596 241.003 521.12 241.231 521.736 241.231C522.352 241.231 522.876 241.003 523.308 240.547C523.74 240.091 523.956 239.543 523.956 238.903ZM528.72 240.511L530.664 235.699H531.936L529.104 242.119H528.3L525.468 235.699H526.752L528.72 240.511ZM539.581 238.303L537.109 241.027H540.925V242.131H535.393V241.135L538.237 238.087C538.749 237.551 539.113 237.115 539.329 236.779C539.545 236.435 539.653 236.079 539.653 235.711C539.653 235.279 539.497 234.923 539.185 234.643C538.881 234.355 538.501 234.211 538.045 234.211C537.309 234.211 536.593 234.547 535.897 235.219L535.237 234.367C536.093 233.527 537.037 233.107 538.069 233.107C538.877 233.107 539.537 233.351 540.049 233.839C540.561 234.327 540.817 234.971 540.817 235.771C540.817 236.555 540.405 237.399 539.581 238.303ZM545.6 242.275C544.992 242.275 544.456 242.143 543.992 241.879C543.528 241.607 543.16 241.239 542.888 240.775C542.384 239.887 542.132 238.859 542.132 237.691C542.132 236.523 542.384 235.495 542.888 234.607C543.16 234.143 543.528 233.779 543.992 233.515C544.456 233.243 544.992 233.107 545.6 233.107C546.216 233.107 546.756 233.243 547.22 233.515C547.684 233.787 548.044 234.151 548.3 234.607C548.556 235.055 548.744 235.539 548.864 236.059C548.992 236.579 549.056 237.123 549.056 237.691C549.056 238.259 548.992 238.803 548.864 239.323C548.744 239.843 548.556 240.331 548.3 240.787C548.044 241.235 547.684 241.595 547.22 241.867C546.756 242.139 546.216 242.275 545.6 242.275ZM547.844 237.691C547.844 236.675 547.66 235.847 547.292 235.207C546.924 234.551 546.36 234.223 545.6 234.223C544.84 234.223 544.276 234.551 543.908 235.207C543.54 235.847 543.356 236.675 543.356 237.691C543.356 238.715 543.54 239.547 543.908 240.187C544.284 240.835 544.848 241.159 545.6 241.159C546.352 241.159 546.916 240.835 547.292 240.187C547.66 239.547 547.844 238.715 547.844 237.691ZM554.311 238.303L551.839 241.027H555.655V242.131H550.123V241.135L552.967 238.087C553.479 237.551 553.843 237.115 554.059 236.779C554.275 236.435 554.383 236.079 554.383 235.711C554.383 235.279 554.227 234.923 553.915 234.643C553.611 234.355 553.231 234.211 552.775 234.211C552.039 234.211 551.323 234.547 550.627 235.219L549.967 234.367C550.823 233.527 551.767 233.107 552.799 233.107C553.607 233.107 554.267 233.351 554.779 233.839C555.291 234.327 555.547 234.971 555.547 235.771C555.547 236.555 555.135 237.399 554.311 238.303ZM556.298 235.375L558.806 233.263H559.754V242.131H558.566V234.859L556.958 236.203L556.298 235.375Z" fill="white"/>
<path d="M585.415 242.131H582.235V233.263H585.535C586.791 233.263 587.783 233.663 588.511 234.463C589.247 235.271 589.615 236.355 589.615 237.715C589.615 239.083 589.239 240.159 588.487 240.943C587.743 241.735 586.719 242.131 585.415 242.131ZM583.435 234.403V240.991H585.463C586.367 240.991 587.079 240.683 587.599 240.067C588.111 239.451 588.367 238.655 588.367 237.679C588.367 236.719 588.111 235.935 587.599 235.327C587.079 234.711 586.367 234.403 585.463 234.403H583.435ZM597.077 238.795C597.077 238.875 597.065 239.071 597.041 239.383H591.917C592.021 239.951 592.261 240.399 592.637 240.727C593.013 241.055 593.525 241.219 594.173 241.219C594.557 241.219 594.953 241.155 595.361 241.027C595.769 240.891 596.121 240.715 596.417 240.499L596.909 241.375C596.573 241.631 596.157 241.847 595.661 242.023C595.165 242.191 594.661 242.275 594.149 242.275C593.565 242.275 593.045 242.179 592.589 241.987C592.141 241.795 591.785 241.535 591.521 241.207C591.257 240.879 591.057 240.519 590.921 240.127C590.785 239.735 590.717 239.323 590.717 238.891C590.717 237.931 591.017 237.131 591.617 236.491C592.225 235.859 593.009 235.543 593.969 235.543C594.881 235.543 595.625 235.835 596.201 236.419C596.785 237.003 597.077 237.795 597.077 238.795ZM591.917 238.387H595.889C595.857 237.835 595.661 237.395 595.301 237.067C594.949 236.731 594.505 236.563 593.969 236.563C593.449 236.563 593.001 236.735 592.625 237.079C592.249 237.415 592.013 237.851 591.917 238.387ZM601.437 242.275C600.437 242.275 599.621 241.959 598.989 241.327C598.357 240.695 598.041 239.891 598.041 238.915C598.041 237.939 598.361 237.131 599.001 236.491C599.641 235.859 600.473 235.543 601.497 235.543C602.129 235.543 602.709 235.695 603.237 235.999C603.773 236.303 604.165 236.711 604.413 237.223L603.465 237.775C603.249 237.407 602.965 237.119 602.613 236.911C602.269 236.703 601.897 236.599 601.497 236.599C600.841 236.599 600.293 236.819 599.853 237.259C599.421 237.707 599.205 238.259 599.205 238.915C599.205 239.563 599.417 240.111 599.841 240.559C600.257 240.999 600.789 241.219 601.437 241.219C601.837 241.219 602.221 241.111 602.589 240.895C602.965 240.679 603.245 240.403 603.429 240.067L604.389 240.619C604.117 241.123 603.717 241.523 603.189 241.819C602.645 242.123 602.061 242.275 601.437 242.275ZM612.461 238.303L609.989 241.027H613.805V242.131H608.273V241.135L611.117 238.087C611.629 237.551 611.993 237.115 612.209 236.779C612.425 236.435 612.533 236.079 612.533 235.711C612.533 235.279 612.377 234.923 612.065 234.643C611.761 234.355 611.381 234.211 610.925 234.211C610.189 234.211 609.473 234.547 608.777 235.219L608.117 234.367C608.973 233.527 609.917 233.107 610.949 233.107C611.757 233.107 612.417 233.351 612.929 233.839C613.441 234.327 613.697 234.971 613.697 235.771C613.697 236.555 613.285 237.399 612.461 238.303ZM618.48 242.275C617.872 242.275 617.336 242.143 616.872 241.879C616.408 241.607 616.04 241.239 615.768 240.775C615.264 239.887 615.012 238.859 615.012 237.691C615.012 236.523 615.264 235.495 615.768 234.607C616.04 234.143 616.408 233.779 616.872 233.515C617.336 233.243 617.872 233.107 618.48 233.107C619.096 233.107 619.636 233.243 620.1 233.515C620.564 233.787 620.924 234.151 621.18 234.607C621.436 235.055 621.624 235.539 621.744 236.059C621.872 236.579 621.936 237.123 621.936 237.691C621.936 238.259 621.872 238.803 621.744 239.323C621.624 239.843 621.436 240.331 621.18 240.787C620.924 241.235 620.564 241.595 620.1 241.867C619.636 242.139 619.096 242.275 618.48 242.275ZM620.724 237.691C620.724 236.675 620.54 235.847 620.172 235.207C619.804 234.551 619.24 234.223 618.48 234.223C617.72 234.223 617.156 234.551 616.788 235.207C616.42 235.847 616.236 236.675 616.236 237.691C616.236 238.715 616.42 239.547 616.788 240.187C617.164 240.835 617.728 241.159 618.48 241.159C619.232 241.159 619.796 240.835 620.172 240.187C620.54 239.547 620.724 238.715 620.724 237.691ZM627.192 238.303L624.72 241.027H628.536V242.131H623.004V241.135L625.848 238.087C626.36 237.551 626.724 237.115 626.94 236.779C627.156 236.435 627.264 236.079 627.264 235.711C627.264 235.279 627.108 234.923 626.796 234.643C626.492 234.355 626.112 234.211 625.656 234.211C624.92 234.211 624.204 234.547 623.508 235.219L622.848 234.367C623.704 233.527 624.648 233.107 625.68 233.107C626.488 233.107 627.148 233.351 627.66 233.839C628.172 234.327 628.428 234.971 628.428 235.771C628.428 236.555 628.016 237.399 627.192 238.303ZM629.179 235.375L631.687 233.263H632.635V242.131H631.447V234.859L629.839 236.203L629.179 235.375Z" fill="white"/>
<rect x="73.8703" y="42.8964" width="560.795" height="0.890452" rx="0.445226" fill="#686868"/>
<rect x="73.8703" y="84.7493" width="560.795" height="0.890452" rx="0.445226" fill="#686868"/>
<rect x="73.8703" y="125.708" width="560.795" height="0.890452" rx="0.445226" fill="#686868"/>
<rect x="73.8703" y="166.668" width="560.795" height="0.890452" rx="0.445226" fill="#686868"/>
<g filter="url(#filter0_d_1_170)">
<path d="M82.5389 177.017C82.5389 177.017 120.576 142.76 142.725 141.868C164.875 140.977 181.838 172.316 199.291 172.316C216.744 172.316 231.084 105.379 255.536 105.379C279.988 105.379 294.161 132.327 309.912 132.327C325.663 132.327 339.515 105.379 365.991 105.379C392.467 105.379 411.261 141.868 426.13 141.868C440.999 141.868 444.323 108.887 481.617 108.887C518.91 108.887 510.092 79.9282 535.704 79.9282C561.316 79.9282 535.704 120.982 592.975 131.328" stroke="#805AD5" stroke-width="1.61669" stroke-linecap="round" stroke-linejoin="round"/>
</g>
<rect opacity="0.1" x="581.845" y="113.619" width="31.9459" height="31.5092" rx="4.59412" fill="#61E224" stroke="#805AD5" stroke-width="0.808346"/>
<defs>
<filter id="filter0_d_1_170" x="73.6471" y="79.1198" width="528.219" height="114.872" filterUnits="userSpaceOnUse" color-interpolation-filters="sRGB">
<feFlood flood-opacity="0" result="BackgroundImageFix"/>
<feColorMatrix in="SourceAlpha" type="matrix" values="0 0 0 0 0 0 0 0 0 0 0 0 0 0 0 0 0 0 127 0" result="hardAlpha"/>
<feOffset dy="8.08346"/>
<feGaussianBlur stdDeviation="4.04173"/>
<feColorMatrix type="matrix" values="0 0 0 0 0 0 0 0 0 0 0 0 0 0 0 0 0 0 0.2 0"/>
<feBlend mode="normal" in2="BackgroundImageFix" result="effect1_dropShadow_1_170"/>
<feBlend mode="normal" in="SourceGraphic" in2="effect1_dropShadow_1_170" result="shape"/>
</filter>
</defs>
</svg>
