<svg width="413" height="121" viewBox="0 0 413 121" fill="none" xmlns="http://www.w3.org/2000/svg">
<rect opacity="0.16" x="0.958312" y="0.529845" width="411.595" height="119.517" rx="4.75873" fill="url(#paint0_linear_1_416)" stroke="#686868" stroke-width="0.482541"/>
<path d="M69.2571 46.8657L1.84912 114.563V120.289H411.663V2.28857L323.462 39.9823L312.731 31.378L292.944 46.8657L250.689 20.4793L195.018 46.8657L188.982 39.9823L178.921 46.8657L157.793 20.4793L121.238 56.0435L111.177 46.8657L84.6838 56.0435L69.2571 46.8657Z" fill="url(#paint1_linear_1_416)"/>
<mask id="mask0_1_416" style="mask-type:alpha" maskUnits="userSpaceOnUse" x="0" y="0" width="413" height="121">
<rect x="0.958312" y="0.529845" width="411.595" height="119.517" rx="2.17144" fill="#1F2633" stroke="#686868" stroke-width="0.482541"/>
</mask>
<g mask="url(#mask0_1_416)">
<path d="M11.9317 104.29L13.9028 102.63H14.6479V109.6H13.7142V103.885L12.4504 104.941L11.9317 104.29ZM17.1353 109.6H16.2299V102.461H17.1071V105.167C17.2642 104.935 17.4843 104.752 17.7672 104.62C18.0565 104.482 18.3708 104.413 18.7104 104.413C19.27 104.413 19.7415 104.595 20.1251 104.96C20.5086 105.324 20.7004 105.849 20.7004 106.535V109.6H19.8044V106.789C19.8044 106.305 19.6881 105.928 19.4554 105.658C19.2228 105.387 18.9116 105.252 18.5217 105.252C18.1131 105.252 17.7798 105.397 17.522 105.686C17.2642 105.969 17.1353 106.337 17.1353 106.789V109.6Z" fill="white"/>
<path d="M32.6894 106.591L30.7465 108.732H33.7457V109.6H29.3979V108.817L31.6331 106.422C32.0355 106 32.3216 105.658 32.4913 105.394C32.6611 105.123 32.746 104.843 32.746 104.554C32.746 104.215 32.6234 103.935 32.3781 103.715C32.1392 103.489 31.8406 103.375 31.4822 103.375C30.9037 103.375 30.341 103.639 29.794 104.168L29.2753 103.498C29.948 102.838 30.6899 102.508 31.501 102.508C32.1361 102.508 32.6548 102.699 33.0572 103.083C33.4596 103.467 33.6608 103.973 33.6608 104.601C33.6608 105.218 33.337 105.881 32.6894 106.591ZM38.508 107.025H39.2908V107.846H38.508V109.6H37.6026V107.846H34.3582L34.1601 107.28L37.9704 102.63H38.508V107.025ZM37.6026 104.337L35.4051 107.025H37.6026V104.337ZM41.2784 109.6H40.373V102.461H41.2501V105.167C41.4073 104.935 41.6274 104.752 41.9103 104.62C42.1995 104.482 42.5139 104.413 42.8534 104.413C43.413 104.413 43.8846 104.595 44.2681 104.96C44.6517 105.324 44.8434 105.849 44.8434 106.535V109.6H43.9475V106.789C43.9475 106.305 43.8311 105.928 43.5985 105.658C43.3659 105.387 43.0546 105.252 42.6648 105.252C42.2561 105.252 41.9229 105.397 41.6651 105.686C41.4073 105.969 41.2784 106.337 41.2784 106.789V109.6Z" fill="white"/>
<path d="M71.2467 104.29L73.2178 102.63H73.9629V109.6H73.0292V103.885L71.7654 104.941L71.2467 104.29ZM81.3829 104.413C81.9928 104.413 82.4832 104.611 82.8542 105.007C83.2189 105.391 83.4012 105.919 83.4012 106.591V109.6H82.4958V106.733C82.4958 106.261 82.3858 105.897 82.1657 105.639C81.9519 105.381 81.6564 105.252 81.2792 105.252C80.8831 105.252 80.5592 105.391 80.3077 105.667C80.0562 105.944 79.9305 106.305 79.9305 106.752V109.6H79.0345V106.752C79.0345 106.28 78.9245 105.912 78.7044 105.648C78.4844 105.384 78.1857 105.252 77.8085 105.252C77.4123 105.252 77.0854 105.394 76.8276 105.677C76.5761 105.953 76.4503 106.318 76.4503 106.771V109.6H75.5449V104.545H76.4315V105.29C76.5824 105.007 76.7899 104.79 77.054 104.639C77.3243 104.482 77.6261 104.407 77.9594 104.413C78.3052 104.413 78.6227 104.498 78.9119 104.667C79.2011 104.831 79.4118 105.06 79.5438 105.356C79.7136 105.067 79.9619 104.837 80.2889 104.667C80.6221 104.498 80.9868 104.413 81.3829 104.413Z" fill="white"/>
<path d="M93.7384 109.713C92.9839 109.713 92.2703 109.484 91.5975 109.025L92.0219 108.261C92.6381 108.651 93.2071 108.846 93.729 108.846C94.1628 108.846 94.5055 108.739 94.757 108.525C95.0148 108.305 95.1437 108.016 95.1437 107.657C95.1437 107.299 95.0085 107.006 94.7382 106.78C94.4741 106.554 94.1314 106.441 93.7101 106.441H92.8519V105.601H93.7007C94.0842 105.601 94.3986 105.497 94.6438 105.29C94.8891 105.076 95.0117 104.803 95.0117 104.469C95.0117 104.136 94.8953 103.872 94.6627 103.677C94.4301 103.476 94.1314 103.375 93.7667 103.375C93.2826 103.375 92.7733 103.58 92.2389 103.988L91.7579 103.328C92.0094 103.077 92.3206 102.879 92.6916 102.734C93.0688 102.583 93.4524 102.508 93.8422 102.508C94.4646 102.508 94.9771 102.684 95.3795 103.036C95.7756 103.382 95.9736 103.819 95.9736 104.347C95.9736 104.718 95.8636 105.048 95.6436 105.337C95.4235 105.626 95.1311 105.827 94.7664 105.941V105.978C95.1814 106.073 95.5115 106.277 95.7567 106.591C96.0019 106.9 96.1245 107.264 96.1245 107.685C96.1245 108.283 95.9013 108.77 95.4549 109.147C95.0148 109.525 94.4426 109.713 93.7384 109.713ZM103.158 104.413C103.767 104.413 104.258 104.611 104.629 105.007C104.994 105.391 105.176 105.919 105.176 106.591V109.6H104.27V106.733C104.27 106.261 104.16 105.897 103.94 105.639C103.727 105.381 103.431 105.252 103.054 105.252C102.658 105.252 102.334 105.391 102.082 105.667C101.831 105.944 101.705 106.305 101.705 106.752V109.6H100.809V106.752C100.809 106.28 100.699 105.912 100.479 105.648C100.259 105.384 99.9604 105.252 99.5831 105.252C99.187 105.252 98.86 105.394 98.6023 105.677C98.3508 105.953 98.225 106.318 98.225 106.771V109.6H97.3196V104.545H98.2061V105.29C98.357 105.007 98.5645 104.79 98.8286 104.639C99.099 104.482 99.4008 104.407 99.734 104.413C100.08 104.413 100.397 104.498 100.687 104.667C100.976 104.831 101.186 105.06 101.318 105.356C101.488 105.067 101.737 104.837 102.064 104.667C102.397 104.498 102.761 104.413 103.158 104.413Z" fill="white"/>
<path d="M116.494 109.685C115.677 109.685 115.051 109.371 114.617 108.742C114.184 108.107 113.967 107.302 113.967 106.327C113.967 105.655 114.067 105.038 114.268 104.479C114.47 103.913 114.793 103.445 115.24 103.074C115.686 102.696 116.224 102.508 116.853 102.508C117.557 102.508 118.151 102.703 118.635 103.092L118.239 103.8C117.83 103.485 117.387 103.328 116.909 103.328C116.463 103.328 116.079 103.485 115.759 103.8C115.438 104.108 115.208 104.469 115.07 104.884C114.938 105.293 114.875 105.705 114.882 106.12V106.158C115.032 105.837 115.268 105.582 115.589 105.394C115.91 105.199 116.274 105.101 116.683 105.101C117.312 105.101 117.834 105.315 118.248 105.743C118.663 106.164 118.871 106.701 118.871 107.355C118.871 108.022 118.648 108.578 118.201 109.025C117.761 109.465 117.192 109.685 116.494 109.685ZM116.504 108.846C116.912 108.846 117.255 108.704 117.532 108.421C117.815 108.126 117.956 107.77 117.956 107.355C117.956 106.947 117.818 106.604 117.541 106.327C117.271 106.057 116.931 105.922 116.523 105.922C116.108 105.922 115.762 106.06 115.485 106.337C115.208 106.613 115.07 106.956 115.07 107.365C115.07 107.773 115.208 108.126 115.485 108.421C115.755 108.704 116.095 108.846 116.504 108.846ZM125.815 104.413C126.424 104.413 126.915 104.611 127.286 105.007C127.651 105.391 127.833 105.919 127.833 106.591V109.6H126.927V106.733C126.927 106.261 126.817 105.897 126.597 105.639C126.384 105.381 126.088 105.252 125.711 105.252C125.315 105.252 124.991 105.391 124.739 105.667C124.488 105.944 124.362 106.305 124.362 106.752V109.6H123.466V106.752C123.466 106.28 123.356 105.912 123.136 105.648C122.916 105.384 122.617 105.252 122.24 105.252C121.844 105.252 121.517 105.394 121.259 105.677C121.008 105.953 120.882 106.318 120.882 106.771V109.6H119.977V104.545H120.863V105.29C121.014 105.007 121.222 104.79 121.486 104.639C121.756 104.482 122.058 104.407 122.391 104.413C122.737 104.413 123.054 104.498 123.344 104.667C123.633 104.831 123.843 105.06 123.975 105.356C124.145 105.067 124.394 104.837 124.721 104.667C125.054 104.498 125.418 104.413 125.815 104.413Z" fill="white"/>
<path d="M136.725 104.29L138.696 102.63H139.441V109.6H138.508V103.885L137.244 104.941L136.725 104.29ZM143.061 108.336L144.419 104.545H145.418L143.296 110.166C143.089 110.725 142.844 111.128 142.561 111.373C142.284 111.625 141.945 111.75 141.542 111.75C141.222 111.75 140.951 111.684 140.731 111.552L140.844 110.76C141.071 110.861 141.275 110.911 141.457 110.911C141.872 110.911 142.206 110.615 142.457 110.024L142.646 109.581L140.448 104.545H141.495L143.061 108.336Z" fill="white"/>
<path d="M159.346 109.6H158.318L157.611 107.789H154.961L154.253 109.6H153.225L156.045 102.63H156.555L159.346 109.6ZM157.29 106.903L156.291 104.271L155.281 106.903H157.29ZM161.071 102.461V109.6H160.165V102.461H161.071ZM163.382 102.461V109.6H162.477V102.461H163.382Z" fill="white"/>
<rect x="49.2265" y="98.0213" width="18.6629" height="16.991" rx="0.943129" fill="#1A202C" stroke="#A3A0A0" stroke-width="0.628752"/>
<path d="M53.1029 103.47V102.63H57.4885V103.187L54.7722 109.6H53.7631L56.4227 103.47H53.1029ZM62.3355 105.28V102.461H63.2409V109.6H62.3355V108.893C61.8953 109.446 61.3106 109.723 60.5813 109.723C59.8456 109.723 59.2357 109.468 58.7516 108.959C58.2737 108.443 58.0348 107.811 58.0348 107.063C58.0348 106.321 58.2737 105.699 58.7516 105.196C59.2294 104.68 59.833 104.422 60.5624 104.422C61.2855 104.422 61.8765 104.708 62.3355 105.28ZM62.4015 107.063C62.4015 106.554 62.2412 106.126 61.9205 105.78C61.6061 105.428 61.1911 105.252 60.6756 105.252C60.16 105.252 59.7419 105.428 59.4212 105.78C59.1068 106.132 58.9496 106.56 58.9496 107.063C58.9496 107.579 59.1068 108.012 59.4212 108.365C59.7419 108.717 60.16 108.893 60.6756 108.893C61.1911 108.893 61.6061 108.717 61.9205 108.365C62.2412 108.019 62.4015 107.585 62.4015 107.063Z" fill="white"/>
</g>
<defs>
<linearGradient id="paint0_linear_1_416" x1="206.756" y1="0.288574" x2="206.756" y2="120.289" gradientUnits="userSpaceOnUse">
<stop stop-color="#2B3341"/>
<stop offset="0.9999" stop-color="#3D495F" stop-opacity="0.01"/>
<stop offset="1" stop-color="#212733" stop-opacity="0"/>
</linearGradient>
<linearGradient id="paint1_linear_1_416" x1="206.756" y1="17.6114" x2="206.756" y2="120.289" gradientUnits="userSpaceOnUse">
<stop stop-color="#7044D7"/>
<stop offset="1" stop-color="#1F2736" stop-opacity="0"/>
</linearGradient>
</defs>
</svg>
