<svg width="69" height="21" viewBox="0 0 69 21" fill="none" xmlns="http://www.w3.org/2000/svg">
<path d="M28.6025 2.69527V5.2141H27.3637V2.69527H28.6025ZM28.4538 16.1813V18.3863H27.2233V16.1813H28.4538ZM30.1055 13.5717C30.1055 13.2413 30.0312 12.944 29.8825 12.6797C29.7339 12.4155 29.4889 12.1732 29.1475 11.953C28.8062 11.7328 28.3492 11.5291 27.7766 11.3419C27.0829 11.1272 26.4828 10.8656 25.9763 10.5573C25.4753 10.249 25.0871 9.86636 24.8118 9.40939C24.542 8.95242 24.4072 8.39911 24.4072 7.74944C24.4072 7.07225 24.5531 6.48865 24.8449 5.99865C25.1367 5.50865 25.5496 5.13151 26.0836 4.86724C26.6177 4.60297 27.2453 4.47084 27.9666 4.47084C28.5281 4.47084 29.0291 4.55617 29.4696 4.72685C29.91 4.89202 30.2817 5.13977 30.5845 5.47011C30.8928 5.80045 31.1268 6.20511 31.2865 6.6841C31.4516 7.16309 31.5342 7.71641 31.5342 8.34405H30.0147C30.0147 7.97517 29.9706 7.63658 29.8825 7.32826C29.7944 7.01995 29.6623 6.75292 29.4861 6.52719C29.3099 6.29595 29.0952 6.11977 28.8419 5.99865C28.5887 5.87202 28.2969 5.80871 27.9666 5.80871C27.5041 5.80871 27.1214 5.88854 26.8186 6.0482C26.5213 6.20786 26.3011 6.4336 26.158 6.72539C26.0148 7.01169 25.9432 7.34478 25.9432 7.72467C25.9432 8.07703 26.0148 8.38534 26.158 8.64961C26.3011 8.91388 26.5433 9.15338 26.8847 9.3681C27.2316 9.57731 27.7078 9.78378 28.3134 9.98748C29.0236 10.2132 29.6265 10.4802 30.122 10.7886C30.6175 11.0914 30.9947 11.4657 31.2534 11.9117C31.5122 12.3522 31.6416 12.9 31.6416 13.5551C31.6416 14.2654 31.4819 14.8655 31.1626 15.3555C30.8432 15.84 30.3945 16.2089 29.8164 16.4621C29.2384 16.7154 28.5612 16.842 27.7849 16.842C27.3169 16.842 26.8544 16.7787 26.3974 16.6521C25.9405 16.5254 25.5276 16.319 25.1587 16.0327C24.7898 15.7409 24.4952 15.3582 24.275 14.8847C24.0548 14.4058 23.9447 13.8194 23.9447 13.1257H25.4808C25.4808 13.5937 25.5468 13.9818 25.679 14.2901C25.8166 14.5929 25.9983 14.8352 26.224 15.0169C26.4498 15.1931 26.6975 15.3197 26.9673 15.3968C27.2426 15.4683 27.5151 15.5041 27.7849 15.5041C28.2804 15.5041 28.6988 15.4271 29.0402 15.2729C29.387 15.1132 29.6513 14.8875 29.833 14.5957C30.0147 14.3039 30.1055 13.9626 30.1055 13.5717ZM41.0975 9.69844V11.5318C41.0975 12.5173 41.0094 13.3487 40.8332 14.0259C40.657 14.7031 40.4038 15.2481 40.0735 15.661C39.7431 16.074 39.344 16.374 38.876 16.5612C38.4135 16.7429 37.8905 16.8337 37.3069 16.8337C36.8444 16.8337 36.4177 16.7759 36.0268 16.6603C35.6359 16.5447 35.2835 16.3603 34.9697 16.107C34.6614 15.8482 34.3971 15.5124 34.1769 15.0995C33.9567 14.6865 33.7888 14.1855 33.6731 13.5964C33.5575 13.0073 33.4997 12.3191 33.4997 11.5318V9.69844C33.4997 8.71293 33.5878 7.88708 33.764 7.2209C33.9457 6.55472 34.2017 6.02067 34.532 5.61876C34.8624 5.21134 35.2588 4.91954 35.7212 4.74336C36.1892 4.56718 36.7123 4.47909 37.2904 4.47909C37.7583 4.47909 38.1878 4.5369 38.5787 4.65252C38.9751 4.76263 39.3274 4.94157 39.6358 5.18932C39.9441 5.43157 40.2056 5.7564 40.4203 6.16382C40.6405 6.56573 40.8085 7.05848 40.9241 7.64208C41.0397 8.22568 41.0975 8.91113 41.0975 9.69844ZM39.5614 11.7796V9.44243C39.5614 8.90287 39.5284 8.42939 39.4623 8.02197C39.4018 7.60905 39.3109 7.25669 39.1898 6.96489C39.0687 6.67309 38.9145 6.43635 38.7273 6.25466C38.5456 6.07298 38.3337 5.94084 38.0914 5.85826C37.8547 5.77017 37.5877 5.72612 37.2904 5.72612C36.927 5.72612 36.6049 5.79494 36.3241 5.93258C36.0433 6.06472 35.8066 6.27668 35.6139 6.56848C35.4267 6.86028 35.2835 7.24292 35.1844 7.71641C35.0853 8.18989 35.0358 8.76523 35.0358 9.44243V11.7796C35.0358 12.3191 35.0661 12.7954 35.1266 13.2083C35.1927 13.6212 35.2891 13.9791 35.4157 14.2819C35.5423 14.5792 35.6965 14.8242 35.8782 15.0169C36.0598 15.2096 36.2691 15.3527 36.5058 15.4463C36.748 15.5344 37.0151 15.5785 37.3069 15.5785C37.6813 15.5785 38.0088 15.5069 38.2896 15.3637C38.5704 15.2206 38.8044 14.9976 38.9916 14.6948C39.1843 14.3865 39.3274 13.9928 39.421 13.5138C39.5146 13.0293 39.5614 12.4513 39.5614 11.7796ZM43.253 15.8592C43.253 15.6005 43.3328 15.383 43.4925 15.2068C43.6576 15.0251 43.8944 14.9343 44.2027 14.9343C44.511 14.9343 44.745 15.0251 44.9046 15.2068C45.0698 15.383 45.1524 15.6005 45.1524 15.8592C45.1524 16.1125 45.0698 16.3272 44.9046 16.5034C44.745 16.6796 44.511 16.7677 44.2027 16.7677C43.8944 16.7677 43.6576 16.6796 43.4925 16.5034C43.3328 16.3272 43.253 16.1125 43.253 15.8592ZM55.2938 4.64426V5.50314L50.3139 16.6686H48.7035L53.6751 5.89955H47.1675V4.64426H55.2938ZM65.1626 12.6219V13.8772H56.4747V12.977L61.8593 4.64426H63.1063L61.7684 7.05573L58.209 12.6219H65.1626ZM63.4862 4.64426V16.6686H61.9584V4.64426H63.4862Z" fill="#61E224"/>
<g clip-path="url(#clip0_1_434)">
<path d="M17.8991 6.60517L11.6123 12.892L8.25932 9.539L3.22989 14.5684M14.127 6.18605H18.2763V10.3772" stroke="#61E224" stroke-width="2" stroke-linecap="round" stroke-linejoin="round"/>
</g>
<defs>
<clipPath id="clip0_1_434">
<rect width="20.38" height="20.38" fill="white" transform="translate(21.0948 20.6686) rotate(-180)"/>
</clipPath>
</defs>
</svg>
