<svg width="70" height="21" viewBox="0 0 70 21" fill="none" xmlns="http://www.w3.org/2000/svg">
<path d="M32.8795 9.69843V11.5318C32.8795 12.5173 32.7914 13.3487 32.6153 14.0259C32.4391 14.7031 32.1858 15.2481 31.8555 15.661C31.5251 16.074 31.126 16.374 30.658 16.5612C30.1955 16.7429 29.6725 16.8337 29.0889 16.8337C28.6264 16.8337 28.1997 16.7759 27.8088 16.6603C27.4179 16.5447 27.0656 16.3603 26.7518 16.107C26.4434 15.8482 26.1792 15.5124 25.9589 15.0995C25.7387 14.6865 25.5708 14.1855 25.4552 13.5964C25.3396 13.0073 25.2818 12.3191 25.2818 11.5318V9.69843C25.2818 8.71293 25.3698 7.88708 25.546 7.2209C25.7277 6.55472 25.9837 6.02067 26.3141 5.61876C26.6444 5.21134 27.0408 4.91954 27.5033 4.74336C27.9713 4.56718 28.4943 4.47909 29.0724 4.47909C29.5404 4.47909 29.9698 4.5369 30.3607 4.65252C30.7571 4.76263 31.1095 4.94156 31.4178 5.18932C31.7261 5.43157 31.9876 5.7564 32.2023 6.16381C32.4226 6.56573 32.5905 7.05848 32.7061 7.64208C32.8217 8.22568 32.8795 8.91113 32.8795 9.69843ZM31.3435 11.7796V9.44242C31.3435 8.90287 31.3104 8.42938 31.2444 8.02197C31.1838 7.60904 31.093 7.25668 30.9718 6.96489C30.8507 6.67309 30.6965 6.43634 30.5094 6.25466C30.3277 6.07297 30.1157 5.94084 29.8735 5.85825C29.6367 5.77016 29.3697 5.72612 29.0724 5.72612C28.709 5.72612 28.3869 5.79494 28.1061 5.93258C27.8254 6.06471 27.5886 6.27668 27.3959 6.56848C27.2087 6.86028 27.0656 7.24292 26.9665 7.7164C26.8674 8.18989 26.8178 8.76523 26.8178 9.44242V11.7796C26.8178 12.3191 26.8481 12.7954 26.9087 13.2083C26.9747 13.6212 27.0711 13.9791 27.1977 14.2819C27.3243 14.5792 27.4785 14.8242 27.6602 15.0169C27.8419 15.2096 28.0511 15.3527 28.2878 15.4463C28.5301 15.5344 28.7971 15.5785 29.0889 15.5785C29.4633 15.5785 29.7909 15.5069 30.0717 15.3637C30.3524 15.2206 30.5864 14.9976 30.7736 14.6948C30.9663 14.3865 31.1095 13.9928 31.2031 13.5138C31.2967 13.0293 31.3435 12.4513 31.3435 11.7796ZM35.035 15.8592C35.035 15.6005 35.1148 15.383 35.2745 15.2068C35.4397 15.0251 35.6764 14.9343 35.9847 14.9343C36.293 14.9343 36.527 15.0251 36.6867 15.2068C36.8519 15.383 36.9344 15.6005 36.9344 15.8592C36.9344 16.1125 36.8519 16.3272 36.6867 16.5034C36.527 16.6796 36.293 16.7677 35.9847 16.7677C35.6764 16.7677 35.4397 16.6796 35.2745 16.5034C35.1148 16.3272 35.035 16.1125 35.035 15.8592ZM41.2371 10.9455L40.0148 10.6316L40.6177 4.64426H46.7868V6.05646H41.9143L41.5509 9.3268C41.7711 9.20017 42.0492 9.0818 42.385 8.97169C42.7264 8.86158 43.1173 8.80652 43.5577 8.80652C44.1138 8.80652 44.612 8.90287 45.0525 9.09557C45.4929 9.28276 45.8673 9.55253 46.1756 9.9049C46.4895 10.2573 46.729 10.6812 46.8941 11.1767C47.0593 11.6722 47.1419 12.2255 47.1419 12.8366C47.1419 13.4147 47.0621 13.946 46.9024 14.4305C46.7482 14.915 46.5142 15.339 46.2004 15.7023C45.8866 16.0602 45.4902 16.3382 45.0112 16.5364C44.5377 16.7346 43.9789 16.8337 43.3347 16.8337C42.8502 16.8337 42.3905 16.7677 41.9556 16.6355C41.5261 16.4979 41.1407 16.2914 40.7994 16.0162C40.4635 15.7354 40.1883 15.3885 39.9735 14.9756C39.7643 14.5572 39.6322 14.0672 39.5771 13.5056H41.0306C41.0967 13.957 41.2288 14.3369 41.427 14.6452C41.6252 14.9536 41.884 15.1876 42.2033 15.3472C42.5282 15.5014 42.9053 15.5785 43.3347 15.5785C43.6981 15.5785 44.0202 15.5151 44.301 15.3885C44.5818 15.2619 44.8185 15.0802 45.0112 14.8435C45.2039 14.6067 45.3498 14.3204 45.4489 13.9846C45.5535 13.6487 45.6058 13.2716 45.6058 12.8532C45.6058 12.4733 45.5535 12.1209 45.4489 11.7961C45.3443 11.4712 45.1874 11.1877 44.9782 10.9455C44.7745 10.7032 44.524 10.516 44.2267 10.3839C43.9293 10.2462 43.588 10.1774 43.2026 10.1774C42.6906 10.1774 42.3024 10.2462 42.0382 10.3839C41.7794 10.5215 41.5124 10.7087 41.2371 10.9455ZM56.3996 13.4147C56.3996 14.147 56.2289 14.7691 55.8876 15.2812C55.5517 15.7877 55.0948 16.1731 54.5167 16.4373C53.9441 16.7016 53.2972 16.8337 52.576 16.8337C51.8547 16.8337 51.205 16.7016 50.627 16.4373C50.0489 16.1731 49.5919 15.7877 49.2561 15.2812C48.9202 14.7691 48.7523 14.147 48.7523 13.4147C48.7523 12.9357 48.8431 12.4981 49.0248 12.1016C49.212 11.6997 49.4735 11.3501 49.8094 11.0528C50.1507 10.7555 50.5526 10.527 51.0151 10.3674C51.4831 10.2022 51.9979 10.1196 52.5594 10.1196C53.2972 10.1196 53.9551 10.2628 54.5332 10.5491C55.1113 10.8298 55.5655 11.218 55.8959 11.7135C56.2317 12.209 56.3996 12.7761 56.3996 13.4147ZM54.8635 13.3817C54.8635 12.9357 54.7672 12.5421 54.5745 12.2007C54.3818 11.8539 54.112 11.5841 53.7652 11.3914C53.4183 11.1987 53.0164 11.1024 52.5594 11.1024C52.0915 11.1024 51.6868 11.1987 51.3454 11.3914C51.0096 11.5841 50.7481 11.8539 50.5609 12.2007C50.3737 12.5421 50.2801 12.9357 50.2801 13.3817C50.2801 13.8442 50.3709 14.2406 50.5526 14.5709C50.7398 14.8958 51.0041 15.1463 51.3454 15.3224C51.6923 15.4931 52.1025 15.5785 52.576 15.5785C53.0494 15.5785 53.4569 15.4931 53.7982 15.3224C54.1396 15.1463 54.4011 14.8958 54.5828 14.5709C54.7699 14.2406 54.8635 13.8442 54.8635 13.3817ZM56.1188 7.77421C56.1188 8.35781 55.9647 8.8836 55.6564 9.35158C55.348 9.81956 54.9269 10.1884 54.3928 10.4582C53.8588 10.728 53.2531 10.8629 52.576 10.8629C51.8877 10.8629 51.2739 10.728 50.7343 10.4582C50.2003 10.1884 49.7818 9.81956 49.479 9.35158C49.1762 8.8836 49.0248 8.35781 49.0248 7.77421C49.0248 7.075 49.1762 6.48039 49.479 5.99039C49.7873 5.50039 50.2085 5.126 50.7426 4.86724C51.2766 4.60847 51.885 4.47909 52.5677 4.47909C53.2559 4.47909 53.867 4.60847 54.4011 4.86724C54.9351 5.126 55.3535 5.50039 55.6564 5.99039C55.9647 6.48039 56.1188 7.075 56.1188 7.77421ZM54.591 7.79899C54.591 7.39708 54.5057 7.04196 54.335 6.73365C54.1643 6.42533 53.9276 6.18308 53.6248 6.0069C53.322 5.82522 52.9696 5.73438 52.5677 5.73438C52.1658 5.73438 51.8134 5.81971 51.5106 5.99039C51.2133 6.15556 50.9793 6.3923 50.8086 6.70061C50.6435 7.00893 50.5609 7.37506 50.5609 7.79899C50.5609 8.21191 50.6435 8.57253 50.8086 8.88085C50.9793 9.18916 51.2161 9.42866 51.5189 9.59933C51.8217 9.77001 52.174 9.85534 52.576 9.85534C52.9779 9.85534 53.3275 9.77001 53.6248 9.59933C53.9276 9.42866 54.1643 9.18916 54.335 8.88085C54.5057 8.57253 54.591 8.21191 54.591 7.79899ZM58.2 7.59253V6.95663C58.2 6.49966 58.2991 6.08398 58.4973 5.7096C58.6955 5.33522 58.979 5.03516 59.3479 4.80943C59.7168 4.5837 60.1545 4.47083 60.661 4.47083C61.1785 4.47083 61.619 4.5837 61.9823 4.80943C62.3512 5.03516 62.6347 5.33522 62.833 5.7096C63.0312 6.08398 63.1303 6.49966 63.1303 6.95663V7.59253C63.1303 8.03848 63.0312 8.44865 62.833 8.82304C62.6403 9.19742 62.3595 9.49748 61.9906 9.72321C61.6272 9.94894 61.1895 10.0618 60.6775 10.0618C60.1655 10.0618 59.7223 9.94894 59.3479 9.72321C58.979 9.49748 58.6955 9.19742 58.4973 8.82304C58.2991 8.44865 58.2 8.03848 58.2 7.59253ZM59.3479 6.95663V7.59253C59.3479 7.84579 59.3947 8.08528 59.4883 8.31101C59.5874 8.53674 59.736 8.72118 59.9342 8.86433C60.1324 9.00197 60.3802 9.07079 60.6775 9.07079C60.9748 9.07079 61.2198 9.00197 61.4125 8.86433C61.6052 8.72118 61.7483 8.53674 61.8419 8.31101C61.9355 8.08528 61.9823 7.84579 61.9823 7.59253V6.95663C61.9823 6.69786 61.9328 6.45561 61.8337 6.22988C61.7401 5.99865 61.5942 5.81421 61.396 5.67657C61.2033 5.53342 60.9583 5.46185 60.661 5.46185C60.3692 5.46185 60.1242 5.53342 59.926 5.67657C59.7333 5.81421 59.5874 5.99865 59.4883 6.22988C59.3947 6.45561 59.3479 6.69786 59.3479 6.95663ZM64.0552 14.3645V13.7203C64.0552 13.2688 64.1543 12.8559 64.3525 12.4815C64.5507 12.1072 64.8343 11.8071 65.2031 11.5814C65.572 11.3556 66.0097 11.2428 66.5162 11.2428C67.0338 11.2428 67.4742 11.3556 67.8376 11.5814C68.2065 11.8071 68.49 12.1072 68.6882 12.4815C68.8864 12.8559 68.9855 13.2688 68.9855 13.7203V14.3645C68.9855 14.8159 68.8864 15.2288 68.6882 15.6032C68.4955 15.9776 68.2147 16.2777 67.8458 16.5034C67.4825 16.7291 67.0448 16.842 66.5327 16.842C66.0207 16.842 65.5803 16.7291 65.2114 16.5034C64.8425 16.2777 64.5562 15.9776 64.3525 15.6032C64.1543 15.2288 64.0552 14.8159 64.0552 14.3645ZM65.2031 13.7203V14.3645C65.2031 14.6177 65.2499 14.86 65.3435 15.0912C65.4426 15.3169 65.5913 15.5014 65.7895 15.6445C65.9877 15.7822 66.2354 15.851 66.5327 15.851C66.83 15.851 67.075 15.7822 67.2677 15.6445C67.4659 15.5014 67.6118 15.3169 67.7054 15.0912C67.799 14.8655 67.8458 14.6232 67.8458 14.3645V13.7203C67.8458 13.4615 67.7963 13.2193 67.6972 12.9936C67.6036 12.7678 67.4577 12.5861 67.2595 12.4485C67.0668 12.3054 66.819 12.2338 66.5162 12.2338C66.2244 12.2338 65.9794 12.3054 65.7812 12.4485C65.5885 12.5861 65.4426 12.7678 65.3435 12.9936C65.2499 13.2193 65.2031 13.4615 65.2031 13.7203ZM66.8961 6.35376L61.0244 15.7519L60.1655 15.2068L66.0372 5.8087L66.8961 6.35376Z" fill="#FF0000"/>
<g clip-path="url(#clip0_1_440)">
<g clip-path="url(#clip1_1_440)">
<path d="M17.0063 14.3392L10.7195 8.05242L7.36653 11.4054L2.3371 6.37595M13.2342 14.7583H17.3835V10.5671" stroke="#FF0000" stroke-width="2" stroke-linecap="round" stroke-linejoin="round"/>
</g>
</g>
<defs>
<clipPath id="clip0_1_440">
<rect width="20.38" height="20.38" fill="white" transform="matrix(1 0 0 -1 0.015625 20.6686)"/>
</clipPath>
<clipPath id="clip1_1_440">
<rect width="20.38" height="20.38" fill="white" transform="matrix(-1 8.74228e-08 8.74228e-08 1 20.2021 0.275803)"/>
</clipPath>
</defs>
</svg>
