<svg width="254" height="33" viewBox="0 0 254 33" fill="none" xmlns="http://www.w3.org/2000/svg">
<g filter="url(#filter0_d_1_219)">
<rect x="3.00113" y="0.692932" width="248.126" height="27.4861" rx="4.0865" fill="#212834"/>
</g>
<path d="M43.6832 16.7638V11.1231H44.8344V16.5566C44.8344 17.2319 45.0032 17.75 45.3409 18.1107C45.6786 18.4714 46.1544 18.6517 46.7684 18.6517C47.3746 18.6517 47.8466 18.4675 48.1843 18.0992C48.522 17.7308 48.6908 17.2166 48.6908 16.5566V11.1231H49.8535V16.7638C49.8535 17.6924 49.5695 18.4292 49.0016 18.974C48.4414 19.5112 47.697 19.7799 46.7684 19.7799C45.8397 19.7799 45.0953 19.5112 44.5351 18.974C43.9672 18.4292 43.6832 17.6924 43.6832 16.7638ZM54.0443 19.7683C53.415 19.7683 52.8395 19.6187 52.3176 19.3194C51.8034 19.0124 51.412 18.5788 51.1434 18.0186L51.9953 17.3164C52.4557 18.2219 53.1349 18.6747 54.0328 18.6747C54.5086 18.6747 54.8885 18.5519 55.1725 18.3064C55.4564 18.0608 55.5984 17.7538 55.5984 17.3854C55.5984 16.9326 55.3029 16.5374 54.712 16.1997C54.6046 16.146 54.3129 16.0079 53.8371 15.7853C53.4457 15.6088 53.1272 15.4476 52.8817 15.3018C52.0298 14.7646 51.6039 14.0893 51.6039 13.2758C51.6039 12.6234 51.8379 12.0786 52.3061 11.6411C52.7742 11.196 53.3958 10.9734 54.171 10.9734C55.23 10.9734 56.0627 11.3917 56.669 12.2282L55.8977 12.965C55.4372 12.3587 54.8655 12.0555 54.1825 12.0555C53.7911 12.0555 53.4688 12.163 53.2155 12.3779C52.9622 12.5851 52.8356 12.8614 52.8356 13.2067C52.8356 13.6518 53.0774 14.0164 53.5608 14.3003C53.7604 14.4231 54.0904 14.5919 54.5509 14.8068C55.0343 15.0371 55.3912 15.2174 55.6214 15.3479C56.4426 15.8467 56.8532 16.5067 56.8532 17.3279C56.8532 18.0569 56.5846 18.644 56.0474 19.0892C55.5102 19.5419 54.8425 19.7683 54.0443 19.7683ZM61.4515 19.6302H58.401V11.1231H61.5667C62.7715 11.1231 63.7232 11.5068 64.4215 12.2743C65.1276 13.0494 65.4806 14.0893 65.4806 15.3939C65.4806 16.7062 65.1199 17.7385 64.3985 18.4906C63.6848 19.2503 62.7025 19.6302 61.4515 19.6302ZM59.5521 12.2167V18.5366H61.4976C62.3648 18.5366 63.0478 18.2411 63.5467 17.6502C64.0378 17.0593 64.2834 16.2957 64.2834 15.3594C64.2834 14.4385 64.0378 13.6864 63.5467 13.1031C63.0478 12.5122 62.3648 12.2167 61.4976 12.2167H59.5521Z" fill="#128994"/>
<rect x="18.8688" y="9.32805" width="11.0218" height="10.8663" stroke="#805AD5" stroke-width="0.639536"/>
<path d="M130.528 14.3939C131.034 14.532 131.426 14.8045 131.702 15.2112C131.986 15.6103 132.128 16.0746 132.128 16.6041C132.128 17.2718 131.894 17.8435 131.426 18.3194C130.965 18.8028 130.321 19.0446 129.492 19.0446H125.981V10.5375H129.342C130.079 10.5375 130.651 10.7524 131.057 11.1821C131.472 11.6042 131.679 12.0992 131.679 12.6671C131.679 13.0585 131.576 13.4116 131.368 13.7262C131.161 14.0409 130.881 14.2634 130.528 14.3939ZM129.193 11.6081H127.121V13.9795H129.158C129.565 13.9795 129.891 13.8605 130.137 13.6226C130.382 13.377 130.505 13.0816 130.505 12.7362C130.505 12.4216 130.382 12.1568 130.137 11.9419C129.899 11.7193 129.584 11.6081 129.193 11.6081ZM127.121 17.9625H129.308C129.814 17.9625 130.209 17.8205 130.493 17.5366C130.793 17.2526 130.942 16.9149 130.942 16.5235C130.942 16.1014 130.789 15.7484 130.482 15.4645C130.183 15.1728 129.776 15.027 129.262 15.027H127.121V17.9625ZM135.147 19.0446V11.6541H132.626V10.5375H138.819V11.6541H136.298V19.0446H135.147ZM143.484 19.1712C142.256 19.1712 141.22 18.7645 140.376 17.951C139.532 17.1298 139.11 16.0861 139.11 14.8198C139.11 13.5305 139.54 12.4714 140.399 11.6426C141.259 10.8061 142.299 10.3878 143.519 10.3878C144.294 10.3878 145.008 10.5605 145.66 10.9059C146.312 11.2359 146.823 11.6848 147.191 12.2527L146.339 12.9664C145.618 11.9918 144.685 11.5045 143.542 11.5045C142.636 11.5045 141.869 11.8191 141.24 12.4484C140.61 13.0777 140.296 13.872 140.296 14.8313C140.296 15.7676 140.603 16.5427 141.217 17.1567C141.83 17.763 142.602 18.0661 143.53 18.0661C144.098 18.0661 144.628 17.9395 145.119 17.6862C145.61 17.433 146.032 17.0799 146.385 16.6271L147.214 17.3294C146.807 17.8973 146.274 18.3462 145.614 18.6762C144.962 19.0062 144.252 19.1712 143.484 19.1712Z" fill="#58C925"/>
<rect x="101.146" y="8.68235" width="11.0217" height="10.8663" stroke="#805AD5" stroke-width="0.639536"/>
<path d="M217.621 19.1113H212.326V10.6042H217.621V11.6978H213.477V14.2419H217.31V15.3355H213.477V18.0177H217.621V19.1113ZM220.952 19.1113V11.7208H218.431V10.6042H224.624V11.7208H222.103V19.1113H220.952ZM227.023 19.1113H225.861V10.6042H227.023V14.1958H231.294V10.6042H232.445V19.1113H231.294V15.3009H227.023V19.1113Z" fill="#CAD9FF"/>
<rect x="187.314" y="8.75281" width="11.0217" height="10.8663" stroke="#805AD5" stroke-width="0.639536"/>
<path d="M102.124 11.7509C105.687 16.036 104.392 14.438 106.342 16.6752L113.138 8.36546" stroke="#61E224" stroke-width="1.27907"/>
<path d="M19.6464 11.7509C23.2096 16.036 21.9139 14.438 23.8643 16.6752L30.6598 8.36546" stroke="#61E224" stroke-width="1.27907"/>
<defs>
<filter id="filter0_d_1_219" x="0.665987" y="0.692932" width="252.797" height="32.1564" filterUnits="userSpaceOnUse" color-interpolation-filters="sRGB">
<feFlood flood-opacity="0" result="BackgroundImageFix"/>
<feColorMatrix in="SourceAlpha" type="matrix" values="0 0 0 0 0 0 0 0 0 0 0 0 0 0 0 0 0 0 127 0" result="hardAlpha"/>
<feOffset dy="2.33514"/>
<feGaussianBlur stdDeviation="1.16757"/>
<feComposite in2="hardAlpha" operator="out"/>
<feColorMatrix type="matrix" values="0 0 0 0 0 0 0 0 0 0 0 0 0 0 0 0 0 0 0.25 0"/>
<feBlend mode="normal" in2="BackgroundImageFix" result="effect1_dropShadow_1_219"/>
<feBlend mode="normal" in="SourceGraphic" in2="effect1_dropShadow_1_219" result="shape"/>
</filter>
</defs>
</svg>
