<svg width="124" height="46" viewBox="0 0 124 46" fill="none" xmlns="http://www.w3.org/2000/svg">
<path fill-rule="evenodd" clip-rule="evenodd" d="M68.3962 40.2542C68.9316 40.2542 69.2278 40.5993 68.891 40.8306L62.9415 44.9169C62.6868 45.0919 62.2066 45.0919 61.9519 44.9169L56.0026 40.8307C55.6658 40.5994 55.962 40.2543 56.4974 40.2543L68.3962 40.2542Z" fill="white"/>
<rect x="0.305939" y="0.514923" width="123.043" height="40.3734" rx="5.14973" fill="white"/>
<path d="M34.3823 22.022C34.3823 22.8199 34.118 23.488 33.5893 24.0263C33.0605 24.5646 32.3828 24.8915 31.5561 25.0068V26.492H30.6045V25.0357C29.8931 24.978 29.2491 24.7569 28.6723 24.3724C28.0955 23.9879 27.6533 23.4736 27.3457 22.8295L28.3839 22.0365C28.9414 23.19 29.7826 23.7668 30.9073 23.7668C31.5225 23.7668 32.0127 23.6082 32.378 23.2909C32.7433 22.9641 32.926 22.5652 32.926 22.0941C32.926 21.4885 32.5511 20.9742 31.8013 20.5513C31.6186 20.4455 31.2629 20.2773 30.7342 20.0466C30.2055 19.7967 29.797 19.5804 29.5086 19.3977C28.4512 18.7152 27.9225 17.8741 27.9225 16.8744C27.9225 16.1246 28.1772 15.4805 28.6867 14.9422C29.1962 14.4231 29.8787 14.1251 30.7342 14.0482V12.7216H31.6859V14.077C32.7049 14.2308 33.5268 14.7451 34.1516 15.6199L33.1999 16.4562C32.6328 15.6776 31.9262 15.2882 31.0803 15.2882C30.5804 15.2882 30.1671 15.4276 29.8402 15.7064C29.5134 15.9756 29.35 16.336 29.35 16.7878C29.35 17.3646 29.6528 17.8404 30.2584 18.2153C30.4411 18.3307 30.8592 18.547 31.5129 18.8642C32.2242 19.2007 32.6808 19.4362 32.8827 19.5708C33.8824 20.1764 34.3823 20.9935 34.3823 22.022ZM39.0476 17.9125C40.0762 17.9125 40.9269 18.249 41.5998 18.9219C42.2823 19.5852 42.6236 20.4311 42.6236 21.4597C42.6236 22.4979 42.2679 23.3582 41.5566 24.0407C40.8548 24.7136 39.9608 25.0501 38.8746 25.0501C37.6441 25.0501 36.5146 24.6175 35.4861 23.7523L36.1349 22.7142C37.0193 23.4543 37.9181 23.8244 38.8313 23.8244C39.5523 23.8244 40.1339 23.6033 40.5761 23.1612C41.0375 22.7093 41.2682 22.147 41.2682 21.4741C41.2682 20.8204 41.0423 20.2677 40.5905 19.8159C40.1483 19.3737 39.5859 19.1526 38.9034 19.1526C38.1152 19.1526 37.4519 19.441 36.9136 20.0178L36.0052 19.5419L36.6252 14.2212H41.9026V15.4036H37.6634L37.2885 18.3595C37.8172 18.0615 38.4036 17.9125 39.0476 17.9125ZM48.9582 20.1764L45.8292 23.637H50.501V24.877H43.897V23.7668L47.3288 20.0754C47.7614 19.614 48.0594 19.2824 48.2228 19.0805C48.7899 18.3788 49.0735 17.7251 49.0735 17.1195C49.0735 16.5716 48.8812 16.1246 48.4967 15.7785C48.1026 15.4324 47.6268 15.2594 47.0692 15.2594C46.1656 15.2594 45.3005 15.6631 44.4738 16.4706L43.724 15.5189C44.7429 14.5288 45.8628 14.0338 47.0836 14.0338C48.0545 14.0338 48.838 14.327 49.434 14.9133C50.0492 15.4901 50.3568 16.2591 50.3568 17.2204C50.3568 18.1721 49.8906 19.1574 48.9582 20.1764ZM51.9814 24.2138C51.9814 23.9734 52.0679 23.7716 52.2409 23.6082C52.4139 23.4351 52.6254 23.3486 52.8753 23.3486C53.1253 23.3486 53.332 23.4351 53.4954 23.6082C53.6684 23.7716 53.7549 23.9734 53.7549 24.2138C53.7549 24.4733 53.6684 24.6896 53.4954 24.8626C53.332 25.026 53.1253 25.1078 52.8753 25.1078C52.6254 25.1078 52.4139 25.026 52.2409 24.8626C52.0679 24.6896 51.9814 24.4733 51.9814 24.2138ZM60.9949 24.5598C60.4373 24.8867 59.7884 25.0501 59.0483 25.0501C58.3081 25.0501 57.6592 24.8867 57.1017 24.5598C56.1308 23.9638 55.4723 22.9353 55.1262 21.4741C54.8186 20.186 54.8186 18.8979 55.1262 17.6097C55.4723 16.1294 56.1308 15.1056 57.1017 14.5384C57.6688 14.202 58.3177 14.0338 59.0483 14.0338C59.7788 14.0338 60.4277 14.202 60.9949 14.5384C61.9657 15.1056 62.6242 16.1294 62.9703 17.6097C63.2779 18.8979 63.2779 20.186 62.9703 21.4741C62.6242 22.9353 61.9657 23.9638 60.9949 24.5598ZM59.0483 23.81C59.9903 23.81 60.6872 23.4111 61.139 22.6132C61.6005 21.8154 61.8312 20.7916 61.8312 19.5419C61.8312 18.2923 61.6005 17.2733 61.139 16.485C60.6969 15.6776 59.9999 15.2738 59.0483 15.2738C58.1158 15.2738 57.4189 15.6776 56.9575 16.485C56.5057 17.2829 56.2798 18.3019 56.2798 19.5419C56.2605 20.3398 56.3422 21.0511 56.5249 21.676C56.7171 22.3008 57.0296 22.8103 57.4621 23.2044C57.8947 23.5985 58.4234 23.8004 59.0483 23.81ZM70.7673 24.5598C70.2097 24.8867 69.5609 25.0501 68.8207 25.0501C68.0805 25.0501 67.4316 24.8867 66.8741 24.5598C65.9032 23.9638 65.2447 22.9353 64.8986 21.4741C64.591 20.186 64.591 18.8979 64.8986 17.6097C65.2447 16.1294 65.9032 15.1056 66.8741 14.5384C67.4412 14.202 68.0901 14.0338 68.8207 14.0338C69.5513 14.0338 70.2001 14.202 70.7673 14.5384C71.7382 15.1056 72.3967 16.1294 72.7427 17.6097C73.0503 18.8979 73.0503 20.186 72.7427 21.4741C72.3967 22.9353 71.7382 23.9638 70.7673 24.5598ZM68.8207 23.81C69.7627 23.81 70.4597 23.4111 70.9115 22.6132C71.3729 21.8154 71.6036 20.7916 71.6036 19.5419C71.6036 18.2923 71.3729 17.2733 70.9115 16.485C70.4693 15.6776 69.7723 15.2738 68.8207 15.2738C67.8882 15.2738 67.1913 15.6776 66.7299 16.485C66.2781 17.2829 66.0522 18.3019 66.0522 19.5419C66.033 20.3398 66.1147 21.0511 66.2973 21.676C66.4896 22.3008 66.802 22.8103 67.2346 23.2044C67.6671 23.5985 68.1958 23.8004 68.8207 23.81ZM80.5397 24.5598C79.9822 24.8867 79.3333 25.0501 78.5931 25.0501C77.8529 25.0501 77.204 24.8867 76.6465 24.5598C75.6756 23.9638 75.0171 22.9353 74.6711 21.4741C74.3635 20.186 74.3635 18.8979 74.6711 17.6097C75.0171 16.1294 75.6756 15.1056 76.6465 14.5384C77.2137 14.202 77.8625 14.0338 78.5931 14.0338C79.3237 14.0338 79.9725 14.202 80.5397 14.5384C81.5106 15.1056 82.1691 16.1294 82.5151 17.6097C82.8228 18.8979 82.8228 20.186 82.5151 21.4741C82.1691 22.9353 81.5106 23.9638 80.5397 24.5598ZM78.5931 23.81C79.5352 23.81 80.2321 23.4111 80.6839 22.6132C81.1453 21.8154 81.376 20.7916 81.376 19.5419C81.376 18.2923 81.1453 17.2733 80.6839 16.485C80.2417 15.6776 79.5448 15.2738 78.5931 15.2738C77.6607 15.2738 76.9637 15.6776 76.5023 16.485C76.0505 17.2829 75.8246 18.3019 75.8246 19.5419C75.8054 20.3398 75.8871 21.0511 76.0697 21.676C76.262 22.3008 76.5744 22.8103 77.007 23.2044C77.4396 23.5985 77.9683 23.8004 78.5931 23.81ZM84.7987 23.3919C85.0774 23.3919 85.3033 23.488 85.4764 23.6802C85.659 23.8725 85.7503 24.1176 85.7503 24.4156C85.7503 25.2039 85.1736 25.9681 84.02 26.7083L83.6019 26.1171C84.2267 25.6557 84.6016 25.2952 84.7266 25.0357H84.6689C84.4574 25.0357 84.2748 24.9588 84.121 24.8049C83.9768 24.6511 83.9047 24.4637 83.9047 24.2426C83.9047 24.0119 83.9912 23.8148 84.1642 23.6514C84.3469 23.4784 84.5584 23.3919 84.7987 23.3919ZM90.6134 17.9125C91.6419 17.9125 92.4927 18.249 93.1656 18.9219C93.8481 19.5852 94.1893 20.4311 94.1893 21.4597C94.1893 22.4979 93.8337 23.3582 93.1223 24.0407C92.4206 24.7136 91.5266 25.0501 90.4403 25.0501C89.2099 25.0501 88.0804 24.6175 87.0518 23.7523L87.7007 22.7142C88.585 23.4543 89.4838 23.8244 90.3971 23.8244C91.118 23.8244 91.6996 23.6033 92.1418 23.1612C92.6032 22.7093 92.8339 22.147 92.8339 21.4741C92.8339 20.8204 92.608 20.2677 92.1562 19.8159C91.714 19.3737 91.1517 19.1526 90.4692 19.1526C89.6809 19.1526 89.0176 19.441 88.4793 20.0178L87.5709 19.5419L88.1909 14.2212H93.4684V15.4036H89.2291L88.8542 18.3595C89.3829 18.0615 89.9693 17.9125 90.6134 17.9125ZM100.524 20.1764L97.3949 23.637H102.067V24.877H95.4627V23.7668L98.8945 20.0754C99.3271 19.614 99.6251 19.2824 99.7885 19.0805C100.356 18.3788 100.639 17.7251 100.639 17.1195C100.639 16.5716 100.447 16.1246 100.062 15.7785C99.6683 15.4324 99.1925 15.2594 98.635 15.2594C97.7314 15.2594 96.8662 15.6631 96.0395 16.4706L95.2897 15.5189C96.3087 14.5288 97.4286 14.0338 98.6494 14.0338C99.6203 14.0338 100.404 14.327 101 14.9133C101.615 15.4901 101.923 16.2591 101.923 17.2204C101.923 18.1721 101.456 19.1574 100.524 20.1764Z" fill="#31394D"/>
</svg>
