<svg width="147" height="34" viewBox="0 0 147 34" fill="none" xmlns="http://www.w3.org/2000/svg">
<path d="M0.425781 19.986H5.33849L7.52192 27.1644L11.3429 22.7469C11.8888 25.6919 13.308 31.3611 14.6181 30.4776C15.9281 29.5941 16.9834 26.7963 17.3473 25.5079L21.1683 27.1644L26.081 25.5079L29.902 22.7469L33.723 27.1644L37.544 30.4776V27.1644C38.6357 26.6122 41.365 25.5079 43.5485 25.5079C45.7319 25.5079 48.4612 21.8266 49.5529 19.986L55.0114 27.1644L57.1949 19.986L60.47 30.4776L65.3827 32.1341L68.6579 30.4776V18.3294L72.4789 32.1341C73.3886 30.4776 75.6448 27.1644 77.3916 27.1644C79.1383 27.1644 83.5779 24.2194 85.5794 22.7469L89.9463 19.986L92.1297 18.3294H97.0424L100.318 14.4641L102.501 18.3294L112.872 7.2857C114.146 6.73351 116.912 5.96045 117.785 7.2857C118.658 8.61095 120.332 11.1507 121.06 12.2549L124.881 8.94174L126.519 7.2857L129.248 12.2549L133.615 7.2857L137.436 1.21112L140.711 8.94174L142.348 7.2857L146.715 4.52424" stroke="#32D25A"/>
</svg>
